<?xml version="1.0" encoding="UTF-8" standalone="no"?>
<!-- Created with Inkscape (http://www.inkscape.org/) -->
<svg
   xmlns:ns0="http://www.iki.fi/pav/software/textext/"
   xmlns:dc="http://purl.org/dc/elements/1.1/"
   xmlns:cc="http://creativecommons.org/ns#"
   xmlns:rdf="http://www.w3.org/1999/02/22-rdf-syntax-ns#"
   xmlns:svg="http://www.w3.org/2000/svg"
   xmlns="http://www.w3.org/2000/svg"
   xmlns:xlink="http://www.w3.org/1999/xlink"
   xmlns:sodipodi="http://sodipodi.sourceforge.net/DTD/sodipodi-0.dtd"
   xmlns:inkscape="http://www.inkscape.org/namespaces/inkscape"
   width="744.09448819"
   height="1052.3622047"
   id="svg2"
   sodipodi:version="0.32"
   inkscape:version="0.46"
   sodipodi:docname="Ex14.svg"
   inkscape:output_extension="org.inkscape.output.svg.inkscape">
  <sodipodi:namedview
     id="base"
     pagecolor="#ffffff"
     bordercolor="#666666"
     borderopacity="1.0"
     gridtolerance="10000"
     guidetolerance="10"
     objecttolerance="10"
     inkscape:pageopacity="0.0"
     inkscape:pageshadow="2"
     inkscape:zoom="1.979899"
     inkscape:cx="199.25432"
     inkscape:cy="856.94509"
     inkscape:document-units="px"
     inkscape:current-layer="layer1"
     showgrid="false"
     inkscape:window-width="1680"
     inkscape:window-height="1011"
     inkscape:window-x="0"
     inkscape:window-y="0" />
  <defs
     id="defs4">
    <inkscape:perspective
       sodipodi:type="inkscape:persp3d"
       inkscape:vp_x="0 : 526.18109 : 1"
       inkscape:vp_y="0 : 1000 : 0"
       inkscape:vp_z="744.09448 : 526.18109 : 1"
       inkscape:persp3d-origin="372.04724 : 350.78739 : 1"
       id="perspective10" />
  </defs>
  <metadata
     id="metadata7">
    <rdf:RDF>
      <cc:Work
         rdf:about="">
        <dc:format>image/svg+xml</dc:format>
        <dc:type
           rdf:resource="http://purl.org/dc/dcmitype/StillImage" />
      </cc:Work>
    </rdf:RDF>
  </metadata>
  <g
     inkscape:label="Layer 1"
     inkscape:groupmode="layer"
     id="layer1">
    <path
       sodipodi:type="arc"
       style="fill:none;fill-opacity:1;stroke:#7f0000;stroke-width:2;stroke-linecap:round;stroke-linejoin:miter;stroke-miterlimit:4;stroke-dasharray:12,12;stroke-dashoffset:0;stroke-opacity:1"
       id="path2383"
       sodipodi:cx="271.73105"
       sodipodi:cy="252.82645"
       sodipodi:rx="122.22845"
       sodipodi:ry="122.22845"
       d="M 393.9595,252.82645 A 122.22845,122.22845 0 1 1 149.5026,252.82645 A 122.22845,122.22845 0 1 1 393.9595,252.82645 z" />
    <path
       style="fill:none;fill-rule:evenodd;stroke:#000000;stroke-width:1;stroke-linecap:butt;stroke-linejoin:miter;stroke-opacity:1;stroke-miterlimit:4;stroke-dasharray:8,8;stroke-dashoffset:0"
       d="M 66.699699,252.82645 L 476.7624,252.82645"
       id="path2385" />
    <path
       id="path2387"
       d="M 333.27375,147.27172 L 404.37432,105.88506"
       style="fill:none;fill-rule:evenodd;stroke:#000000;stroke-width:1.00000012px;stroke-linecap:butt;stroke-linejoin:miter;stroke-opacity:1" />
    <path
       style="fill:none;fill-rule:evenodd;stroke:#000000;stroke-width:1.00000012px;stroke-linecap:butt;stroke-linejoin:miter;stroke-opacity:1"
       d="M 262.25675,188.61226 L 333.35732,147.22561"
       id="path2389" />
    <path
       sodipodi:type="arc"
       style="fill:#000000;fill-opacity:1;stroke:#020000;stroke-width:2;stroke-linecap:round;stroke-linejoin:miter;stroke-miterlimit:4;stroke-dasharray:none;stroke-dashoffset:0;stroke-opacity:1"
       id="path2391"
       sodipodi:cx="261.96429"
       sodipodi:cy="217.54076"
       sodipodi:rx="3.0357144"
       sodipodi:ry="3.0357144"
       d="M 265.00001,217.54076 A 3.0357144,3.0357144 0 1 1 258.92858,217.54076 A 3.0357144,3.0357144 0 1 1 265.00001,217.54076 z"
       transform="matrix(0.8660254,0.5,-0.5,0.8660254,142.83727,-129.61428)" />
    <path
       transform="matrix(0.8660254,0.5,-0.5,0.8660254,286.81624,-213.63604)"
       d="M 265.00001,217.54076 A 3.0357144,3.0357144 0 1 1 258.92858,217.54076 A 3.0357144,3.0357144 0 1 1 265.00001,217.54076 z"
       sodipodi:ry="3.0357144"
       sodipodi:rx="3.0357144"
       sodipodi:cy="217.54076"
       sodipodi:cx="261.96429"
       id="path3163"
       style="fill:#000000;fill-opacity:1;stroke:#020000;stroke-width:2;stroke-linecap:round;stroke-linejoin:miter;stroke-miterlimit:4;stroke-dasharray:none;stroke-dashoffset:0;stroke-opacity:1"
       sodipodi:type="arc" />
    <path
       id="path3165"
       d="M 271.73105,457.8578 L 271.73105,47.7951"
       style="fill:none;fill-rule:evenodd;stroke:#000000;stroke-width:1;stroke-linecap:butt;stroke-linejoin:miter;stroke-opacity:1;stroke-miterlimit:4;stroke-dasharray:6,6;stroke-dashoffset:0" />
    <path
       style="fill:none;fill-rule:evenodd;stroke:#000000;stroke-width:1;stroke-linecap:butt;stroke-linejoin:miter;stroke-opacity:1;stroke-miterlimit:4;stroke-dasharray:8,8;stroke-dashoffset:0"
       d="M 333.47593,147.19521 L 433.9976,147.19521"
       id="path3167" />
    <path
       id="path3169"
       d="M 333.32382,147.19567 L 333.32382,72.194757"
       style="fill:none;fill-rule:evenodd;stroke:#000000;stroke-width:1;stroke-linecap:butt;stroke-linejoin:miter;stroke-opacity:1;stroke-miterlimit:4;stroke-dasharray:8,8;stroke-dashoffset:0" />
    <path
       style="fill:none;fill-rule:evenodd;stroke:#000000;stroke-width:1;stroke-linecap:butt;stroke-linejoin:miter;stroke-opacity:1;stroke-miterlimit:4;stroke-dasharray:4,4;stroke-dashoffset:0"
       d="M 271.60714,252.76397 L 333.52679,147.09432"
       id="path3171" />
    <g
       transform="matrix(3.3757424,0,0,3.3757424,-453.72484,-211.4982)"
       ns0:text="$\\theta$"
       ns0:preamble=""
       id="g3189">
      <defs
         id="defs3191">
        <g
           id="g3193">
          <symbol
             style="overflow:visible"
             overflow="visible"
             id="textext-6281a133-0">
            <path
               style="stroke:none"
               d=""
               id="path3196" />
          </symbol>
          <symbol
             style="overflow:visible"
             overflow="visible"
             id="textext-6281a133-1">
            <path
               style="stroke:none"
               d="M 4.53125,-4.984375 C 4.53125,-5.640625 4.359375,-7.03125 3.34375,-7.03125 C 1.953125,-7.03125 0.421875,-4.21875 0.421875,-1.9375 C 0.421875,-1 0.703125,0.109375 1.609375,0.109375 C 3.015625,0.109375 4.53125,-2.75 4.53125,-4.984375 z M 1.46875,-3.625 C 1.640625,-4.25 1.84375,-5.046875 2.25,-5.765625 C 2.515625,-6.25 2.875,-6.8125 3.328125,-6.8125 C 3.8125,-6.8125 3.875,-6.171875 3.875,-5.609375 C 3.875,-5.109375 3.796875,-4.609375 3.5625,-3.625 L 1.46875,-3.625 z M 3.46875,-3.296875 C 3.359375,-2.84375 3.15625,-2 2.765625,-1.28125 C 2.421875,-0.59375 2.046875,-0.109375 1.609375,-0.109375 C 1.28125,-0.109375 1.078125,-0.40625 1.078125,-1.328125 C 1.078125,-1.75 1.140625,-2.328125 1.390625,-3.296875 L 3.46875,-3.296875 z"
               id="path3199" />
          </symbol>
        </g>
      </defs>
      <g
         id="textext-6281a133-2">
        <g
           style="fill:#000000;fill-opacity:1"
           id="g3202">
          <use
             height="1052.3622"
             width="744.09448"
             xlink:href="#textext-6281a133-1"
             x="223.43201"
             y="134.765"
             id="use3204" />
        </g>
      </g>
    </g>
    <g
       id="g3256"
       ns0:preamble=""
       ns0:text="$\\phi$"
       transform="matrix(3.0539215,0,0,3.0539215,-301.01482,-272.07229)">
      <defs
         id="defs3258">
        <g
           id="g3260">
          <symbol
             id="textext-6dca9e35-0"
             overflow="visible"
             style="overflow:visible">
            <path
               id="path3263"
               d=""
               style="stroke:none" />
          </symbol>
          <symbol
             id="textext-6dca9e35-1"
             overflow="visible"
             style="overflow:visible">
            <path
               id="path3266"
               d="M 4.359375,-6.671875 C 4.359375,-6.703125 4.390625,-6.8125 4.390625,-6.8125 C 4.390625,-6.828125 4.390625,-6.921875 4.265625,-6.921875 C 4.171875,-6.921875 4.15625,-6.890625 4.109375,-6.71875 L 3.53125,-4.421875 C 1.953125,-4.359375 0.484375,-3.046875 0.484375,-1.6875 C 0.484375,-0.734375 1.1875,0.046875 2.40625,0.125 C 2.328125,0.421875 2.25,0.75 2.171875,1.0625 C 2.046875,1.53125 1.953125,1.90625 1.953125,1.9375 C 1.953125,2.03125 2.03125,2.046875 2.078125,2.046875 C 2.125,2.046875 2.140625,2.03125 2.171875,2 C 2.1875,1.984375 2.25,1.75 2.28125,1.609375 C 2.40625,1.109375 2.53125,0.625 2.65625,0.125 C 4.265625,0.0625 5.71875,-1.28125 5.71875,-2.609375 C 5.71875,-3.40625 5.1875,-4.3125 3.796875,-4.421875 L 4.359375,-6.671875 z M 2.453125,-0.09375 C 1.859375,-0.125 1.140625,-0.484375 1.140625,-1.46875 C 1.140625,-2.671875 2,-4.0625 3.484375,-4.203125 L 2.453125,-0.09375 z M 3.734375,-4.203125 C 4.5,-4.15625 5.0625,-3.703125 5.0625,-2.828125 C 5.0625,-1.640625 4.203125,-0.21875 2.71875,-0.09375 L 3.734375,-4.203125 z"
               style="stroke:none" />
          </symbol>
        </g>
      </defs>
      <g
         id="textext-6dca9e35-2">
        <g
           id="g3269"
           style="fill:#000000;fill-opacity:1">
          <use
             id="use3271"
             y="134.765"
             x="223.43201"
             xlink:href="#textext-6dca9e35-1"
             width="744.09448"
             height="1052.3622" />
        </g>
      </g>
    </g>
    <g
       transform="matrix(2.3956265,0,0,2.3956265,-177.35481,-191.36036)"
       ns0:text="$\\frac{L}{2}$"
       ns0:preamble=""
       id="g3363">
      <defs
         id="defs3365">
        <g
           id="g3367">
          <symbol
             style="overflow:visible"
             overflow="visible"
             id="textext-134ed132-0">
            <path
               style="stroke:none"
               d=""
               id="path3370" />
          </symbol>
          <symbol
             style="overflow:visible"
             overflow="visible"
             id="textext-134ed132-1">
            <path
               style="stroke:none"
               d="M 2.875,-4.1875 C 2.9375,-4.4375 2.953125,-4.515625 3.59375,-4.515625 C 3.8125,-4.515625 3.875,-4.515625 3.875,-4.65625 C 3.875,-4.671875 3.875,-4.765625 3.765625,-4.765625 C 3.609375,-4.765625 3.421875,-4.75 3.25,-4.734375 C 3.078125,-4.734375 2.859375,-4.734375 2.6875,-4.734375 C 2.546875,-4.734375 2.359375,-4.734375 2.203125,-4.734375 C 2.0625,-4.734375 1.890625,-4.765625 1.75,-4.765625 C 1.71875,-4.765625 1.609375,-4.765625 1.609375,-4.609375 C 1.609375,-4.515625 1.6875,-4.515625 1.828125,-4.515625 C 1.84375,-4.515625 1.96875,-4.515625 2.09375,-4.5 C 2.25,-4.484375 2.265625,-4.46875 2.265625,-4.390625 C 2.265625,-4.390625 2.265625,-4.34375 2.234375,-4.25 L 1.296875,-0.546875 C 1.234375,-0.3125 1.21875,-0.25 0.6875,-0.25 C 0.578125,-0.25 0.484375,-0.25 0.484375,-0.109375 C 0.484375,0 0.5625,0 0.6875,0 L 4.1875,0 C 4.375,0 4.375,0 4.4375,-0.140625 C 4.5,-0.328125 5.03125,-1.671875 5.03125,-1.734375 C 5.03125,-1.75 5.015625,-1.828125 4.90625,-1.828125 C 4.828125,-1.828125 4.8125,-1.796875 4.765625,-1.6875 C 4.5,-1.03125 4.1875,-0.25 2.921875,-0.25 L 2.125,-0.25 C 1.921875,-0.25 1.90625,-0.265625 1.90625,-0.328125 C 1.90625,-0.328125 1.90625,-0.359375 1.9375,-0.46875 L 2.875,-4.1875 z"
               id="path3373" />
          </symbol>
          <symbol
             style="overflow:visible"
             overflow="visible"
             id="textext-134ed132-2">
            <path
               style="stroke:none"
               d=""
               id="path3376" />
          </symbol>
          <symbol
             style="overflow:visible"
             overflow="visible"
             id="textext-134ed132-3">
            <path
               style="stroke:none"
               d="M 3.515625,-1.265625 L 3.28125,-1.265625 C 3.265625,-1.109375 3.1875,-0.703125 3.09375,-0.640625 C 3.046875,-0.59375 2.515625,-0.59375 2.40625,-0.59375 L 1.125,-0.59375 C 1.859375,-1.234375 2.109375,-1.4375 2.515625,-1.765625 C 3.03125,-2.171875 3.515625,-2.609375 3.515625,-3.265625 C 3.515625,-4.109375 2.78125,-4.625 1.890625,-4.625 C 1.03125,-4.625 0.4375,-4.015625 0.4375,-3.375 C 0.4375,-3.03125 0.734375,-2.984375 0.8125,-2.984375 C 0.96875,-2.984375 1.171875,-3.109375 1.171875,-3.359375 C 1.171875,-3.484375 1.125,-3.734375 0.765625,-3.734375 C 0.984375,-4.21875 1.453125,-4.375 1.78125,-4.375 C 2.484375,-4.375 2.84375,-3.828125 2.84375,-3.265625 C 2.84375,-2.65625 2.40625,-2.1875 2.1875,-1.9375 L 0.515625,-0.265625 C 0.4375,-0.203125 0.4375,-0.1875 0.4375,0 L 3.3125,0 L 3.515625,-1.265625 z"
               id="path3379" />
          </symbol>
        </g>
      </defs>
      <g
         id="textext-134ed132-4">
        <g
           style="fill:#000000;fill-opacity:1"
           id="g3382">
          <use
             height="1052.3622"
             width="744.09448"
             xlink:href="#textext-134ed132-1"
             x="224.62801"
             y="130.842"
             id="use3384" />
        </g>
        <path
           style="fill:none;stroke:#000000;stroke-width:0.16613609;stroke-linecap:butt;stroke-linejoin:miter;stroke-miterlimit:10;stroke-opacity:1"
           d="M 0.00090625,0.0005625 L 5.46575,0.0005625"
           transform="matrix(1,0,0,-1,224.628,132.274)"
           id="path3386" />
        <g
           style="fill:#000000;fill-opacity:1"
           id="g3388">
          <use
             height="1052.3622"
             width="744.09448"
             xlink:href="#textext-134ed132-3"
             x="225.375"
             y="138.2"
             id="use3390" />
        </g>
      </g>
    </g>
    <g
       id="g3496"
       ns0:preamble=""
       ns0:text="a"
       transform="matrix(2.9153442,0,0,2.9153442,-355.77371,-188.44794)">
      <defs
         id="defs3498">
        <g
           id="g3500">
          <symbol
             id="textext-b4d9673b-0"
             overflow="visible"
             style="overflow:visible">
            <path
               id="path3503"
               d=""
               style="stroke:none" />
          </symbol>
          <symbol
             id="textext-b4d9673b-1"
             overflow="visible"
             style="overflow:visible">
            <path
               id="path3506"
               d="M 3.3125,-0.75 C 3.359375,-0.359375 3.625,0.0625 4.09375,0.0625 C 4.3125,0.0625 4.921875,-0.078125 4.921875,-0.890625 L 4.921875,-1.453125 L 4.671875,-1.453125 L 4.671875,-0.890625 C 4.671875,-0.3125 4.421875,-0.25 4.3125,-0.25 C 3.984375,-0.25 3.9375,-0.703125 3.9375,-0.75 L 3.9375,-2.734375 C 3.9375,-3.15625 3.9375,-3.546875 3.578125,-3.921875 C 3.1875,-4.3125 2.6875,-4.46875 2.21875,-4.46875 C 1.390625,-4.46875 0.703125,-4 0.703125,-3.34375 C 0.703125,-3.046875 0.90625,-2.875 1.171875,-2.875 C 1.453125,-2.875 1.625,-3.078125 1.625,-3.328125 C 1.625,-3.453125 1.578125,-3.78125 1.109375,-3.78125 C 1.390625,-4.140625 1.875,-4.25 2.1875,-4.25 C 2.6875,-4.25 3.25,-3.859375 3.25,-2.96875 L 3.25,-2.609375 C 2.734375,-2.578125 2.046875,-2.546875 1.421875,-2.25 C 0.671875,-1.90625 0.421875,-1.390625 0.421875,-0.953125 C 0.421875,-0.140625 1.390625,0.109375 2.015625,0.109375 C 2.671875,0.109375 3.125,-0.296875 3.3125,-0.75 z M 3.25,-2.390625 L 3.25,-1.390625 C 3.25,-0.453125 2.53125,-0.109375 2.078125,-0.109375 C 1.59375,-0.109375 1.1875,-0.453125 1.1875,-0.953125 C 1.1875,-1.5 1.609375,-2.328125 3.25,-2.390625 z"
               style="stroke:none" />
          </symbol>
        </g>
      </defs>
      <g
         id="textext-b4d9673b-2">
        <g
           id="g3509"
           style="fill:#000000;fill-opacity:1">
          <use
             id="use3511"
             y="134.765"
             x="223.43201"
             xlink:href="#textext-b4d9673b-1"
             width="744.09448"
             height="1052.3622" />
        </g>
      </g>
    </g>
    <g
       id="g3576"
       ns0:preamble=""
       ns0:text="$\\frac{L}{2}$"
       transform="matrix(2.3956265,0,0,2.3956265,-247.56041,-150.44918)">
      <defs
         id="defs3578">
        <g
           id="g3580">
          <symbol
             id="symbol3582"
             overflow="visible"
             style="overflow:visible">
            <path
               id="path3584"
               d=""
               style="stroke:none" />
          </symbol>
          <symbol
             id="symbol3586"
             overflow="visible"
             style="overflow:visible">
            <path
               id="path3588"
               d="M 2.875,-4.1875 C 2.9375,-4.4375 2.953125,-4.515625 3.59375,-4.515625 C 3.8125,-4.515625 3.875,-4.515625 3.875,-4.65625 C 3.875,-4.671875 3.875,-4.765625 3.765625,-4.765625 C 3.609375,-4.765625 3.421875,-4.75 3.25,-4.734375 C 3.078125,-4.734375 2.859375,-4.734375 2.6875,-4.734375 C 2.546875,-4.734375 2.359375,-4.734375 2.203125,-4.734375 C 2.0625,-4.734375 1.890625,-4.765625 1.75,-4.765625 C 1.71875,-4.765625 1.609375,-4.765625 1.609375,-4.609375 C 1.609375,-4.515625 1.6875,-4.515625 1.828125,-4.515625 C 1.84375,-4.515625 1.96875,-4.515625 2.09375,-4.5 C 2.25,-4.484375 2.265625,-4.46875 2.265625,-4.390625 C 2.265625,-4.390625 2.265625,-4.34375 2.234375,-4.25 L 1.296875,-0.546875 C 1.234375,-0.3125 1.21875,-0.25 0.6875,-0.25 C 0.578125,-0.25 0.484375,-0.25 0.484375,-0.109375 C 0.484375,0 0.5625,0 0.6875,0 L 4.1875,0 C 4.375,0 4.375,0 4.4375,-0.140625 C 4.5,-0.328125 5.03125,-1.671875 5.03125,-1.734375 C 5.03125,-1.75 5.015625,-1.828125 4.90625,-1.828125 C 4.828125,-1.828125 4.8125,-1.796875 4.765625,-1.6875 C 4.5,-1.03125 4.1875,-0.25 2.921875,-0.25 L 2.125,-0.25 C 1.921875,-0.25 1.90625,-0.265625 1.90625,-0.328125 C 1.90625,-0.328125 1.90625,-0.359375 1.9375,-0.46875 L 2.875,-4.1875 z"
               style="stroke:none" />
          </symbol>
          <symbol
             id="symbol3590"
             overflow="visible"
             style="overflow:visible">
            <path
               id="path3592"
               d=""
               style="stroke:none" />
          </symbol>
          <symbol
             id="symbol3594"
             overflow="visible"
             style="overflow:visible">
            <path
               id="path3596"
               d="M 3.515625,-1.265625 L 3.28125,-1.265625 C 3.265625,-1.109375 3.1875,-0.703125 3.09375,-0.640625 C 3.046875,-0.59375 2.515625,-0.59375 2.40625,-0.59375 L 1.125,-0.59375 C 1.859375,-1.234375 2.109375,-1.4375 2.515625,-1.765625 C 3.03125,-2.171875 3.515625,-2.609375 3.515625,-3.265625 C 3.515625,-4.109375 2.78125,-4.625 1.890625,-4.625 C 1.03125,-4.625 0.4375,-4.015625 0.4375,-3.375 C 0.4375,-3.03125 0.734375,-2.984375 0.8125,-2.984375 C 0.96875,-2.984375 1.171875,-3.109375 1.171875,-3.359375 C 1.171875,-3.484375 1.125,-3.734375 0.765625,-3.734375 C 0.984375,-4.21875 1.453125,-4.375 1.78125,-4.375 C 2.484375,-4.375 2.84375,-3.828125 2.84375,-3.265625 C 2.84375,-2.65625 2.40625,-2.1875 2.1875,-1.9375 L 0.515625,-0.265625 C 0.4375,-0.203125 0.4375,-0.1875 0.4375,0 L 3.3125,0 L 3.515625,-1.265625 z"
               style="stroke:none" />
          </symbol>
        </g>
      </defs>
      <g
         id="g3598">
        <g
           id="g3600"
           style="fill:#000000;fill-opacity:1">
          <use
             id="use3602"
             y="130.842"
             x="224.62801"
             xlink:href="#textext-134ed132-1"
             width="744.09448"
             height="1052.3622" />
        </g>
        <path
           id="path3604"
           transform="matrix(1,0,0,-1,224.628,132.274)"
           d="M 0.00090625,0.0005625 L 5.46575,0.0005625"
           style="fill:none;stroke:#000000;stroke-width:0.16613609;stroke-linecap:butt;stroke-linejoin:miter;stroke-miterlimit:10;stroke-opacity:1" />
        <g
           id="g3606"
           style="fill:#000000;fill-opacity:1">
          <use
             id="use3608"
             y="138.2"
             x="225.375"
             xlink:href="#textext-134ed132-3"
             width="744.09448"
             height="1052.3622" />
        </g>
      </g>
    </g>
  </g>
</svg>
