<?xml version="1.0" encoding="UTF-8" standalone="no"?>
<!-- Created with Inkscape (http://www.inkscape.org/) -->
<svg
   xmlns:ns0="http://www.iki.fi/pav/software/textext/"
   xmlns:dc="http://purl.org/dc/elements/1.1/"
   xmlns:cc="http://creativecommons.org/ns#"
   xmlns:rdf="http://www.w3.org/1999/02/22-rdf-syntax-ns#"
   xmlns:svg="http://www.w3.org/2000/svg"
   xmlns="http://www.w3.org/2000/svg"
   xmlns:xlink="http://www.w3.org/1999/xlink"
   xmlns:sodipodi="http://sodipodi.sourceforge.net/DTD/sodipodi-0.dtd"
   xmlns:inkscape="http://www.inkscape.org/namespaces/inkscape"
   width="744.09448819"
   height="1052.3622047"
   id="svg2"
   sodipodi:version="0.32"
   inkscape:version="0.46"
   sodipodi:docname="Ex14.svg"
   inkscape:output_extension="org.inkscape.output.svg.inkscape"
   inkscape:export-filename="/home/andrei/Work/ClassicalMechanics/HW2/Ex14.png"
   inkscape:export-xdpi="260.67999"
   inkscape:export-ydpi="260.67999">
  <sodipodi:namedview
     id="base"
     pagecolor="#ffffff"
     bordercolor="#666666"
     borderopacity="1.0"
     gridtolerance="10000"
     guidetolerance="10"
     objecttolerance="10"
     inkscape:pageopacity="0.0"
     inkscape:pageshadow="2"
     inkscape:zoom="1.8101934"
     inkscape:cx="160.57074"
     inkscape:cy="822.95923"
     inkscape:document-units="px"
     inkscape:current-layer="layer1"
     showgrid="false"
     inkscape:window-width="1680"
     inkscape:window-height="1008"
     inkscape:window-x="0"
     inkscape:window-y="0" />
  <defs
     id="defs4">
    <marker
       style="overflow:visible;"
       id="Arrow1Mend"
       refX="0.0"
       refY="0.0"
       orient="auto"
       inkscape:stockid="Arrow1Mend">
      <path
         transform="scale(0.4) rotate(180) translate(10,0)"
         style="fill-rule:evenodd;stroke:#000000;stroke-width:1.0pt;marker-start:none;"
         d="M 0.0,0.0 L 5.0,-5.0 L -12.5,0.0 L 5.0,5.0 L 0.0,0.0 z "
         id="path3387" />
    </marker>
    <marker
       style="overflow:visible;"
       id="Arrow1Lend"
       refX="0.0"
       refY="0.0"
       orient="auto"
       inkscape:stockid="Arrow1Lend">
      <path
         transform="scale(0.8) rotate(180) translate(12.5,0)"
         style="fill-rule:evenodd;stroke:#000000;stroke-width:1.0pt;marker-start:none;"
         d="M 0.0,0.0 L 5.0,-5.0 L -12.5,0.0 L 5.0,5.0 L 0.0,0.0 z "
         id="path3381" />
    </marker>
    <inkscape:perspective
       sodipodi:type="inkscape:persp3d"
       inkscape:vp_x="0 : 526.18109 : 1"
       inkscape:vp_y="0 : 1000 : 0"
       inkscape:vp_z="744.09448 : 526.18109 : 1"
       inkscape:persp3d-origin="372.04724 : 350.78739 : 1"
       id="perspective10" />
  </defs>
  <metadata
     id="metadata7">
    <rdf:RDF>
      <cc:Work
         rdf:about="">
        <dc:format>image/svg+xml</dc:format>
        <dc:type
           rdf:resource="http://purl.org/dc/dcmitype/StillImage" />
      </cc:Work>
    </rdf:RDF>
  </metadata>
  <g
     inkscape:label="Layer 1"
     inkscape:groupmode="layer"
     id="layer1">
    <g
       id="g2450"
       ns0:preamble=""
       ns0:text="$R_1$"
       transform="translate(-35.173391,132.86687)">
      <defs
         id="defs2452">
        <g
           id="g2454">
          <symbol
             style="overflow:visible"
             id="textext-b6f53550-0"
             overflow="visible">
            <path
               id="path2457"
               d=""
               style="stroke:none" />
          </symbol>
          <symbol
             style="overflow:visible"
             id="textext-b6f53550-1"
             overflow="visible">
            <path
               id="path2460"
               d="M 3.734375,-6.125 C 3.796875,-6.359375 3.828125,-6.453125 4.015625,-6.484375 C 4.109375,-6.5 4.421875,-6.5 4.625,-6.5 C 5.328125,-6.5 6.4375,-6.5 6.4375,-5.515625 C 6.4375,-5.171875 6.28125,-4.484375 5.890625,-4.09375 C 5.625,-3.84375 5.109375,-3.515625 4.203125,-3.515625 L 3.09375,-3.515625 L 3.734375,-6.125 z M 5.171875,-3.390625 C 6.1875,-3.609375 7.359375,-4.3125 7.359375,-5.3125 C 7.359375,-6.171875 6.46875,-6.8125 5.15625,-6.8125 L 2.328125,-6.8125 C 2.125,-6.8125 2.03125,-6.8125 2.03125,-6.609375 C 2.03125,-6.5 2.125,-6.5 2.3125,-6.5 C 2.328125,-6.5 2.515625,-6.5 2.6875,-6.484375 C 2.875,-6.453125 2.953125,-6.453125 2.953125,-6.3125 C 2.953125,-6.28125 2.953125,-6.25 2.921875,-6.125 L 1.578125,-0.78125 C 1.484375,-0.390625 1.46875,-0.3125 0.671875,-0.3125 C 0.5,-0.3125 0.40625,-0.3125 0.40625,-0.109375 C 0.40625,0 0.53125,0 0.546875,0 C 0.828125,0 1.53125,-0.03125 1.796875,-0.03125 C 2.078125,-0.03125 2.796875,0 3.078125,0 C 3.15625,0 3.265625,0 3.265625,-0.203125 C 3.265625,-0.3125 3.1875,-0.3125 2.984375,-0.3125 C 2.625,-0.3125 2.34375,-0.3125 2.34375,-0.484375 C 2.34375,-0.546875 2.359375,-0.59375 2.375,-0.65625 L 3.03125,-3.296875 L 4.21875,-3.296875 C 5.125,-3.296875 5.296875,-2.734375 5.296875,-2.390625 C 5.296875,-2.25 5.21875,-1.9375 5.15625,-1.703125 C 5.09375,-1.421875 5,-1.0625 5,-0.859375 C 5,0.21875 6.203125,0.21875 6.328125,0.21875 C 7.171875,0.21875 7.53125,-0.78125 7.53125,-0.921875 C 7.53125,-1.046875 7.421875,-1.046875 7.40625,-1.046875 C 7.3125,-1.046875 7.296875,-0.984375 7.28125,-0.90625 C 7.03125,-0.171875 6.59375,0 6.375,0 C 6.046875,0 5.96875,-0.21875 5.96875,-0.609375 C 5.96875,-0.921875 6.03125,-1.421875 6.078125,-1.75 C 6.09375,-1.890625 6.109375,-2.078125 6.109375,-2.21875 C 6.109375,-2.984375 5.4375,-3.296875 5.171875,-3.390625 z"
               style="stroke:none" />
          </symbol>
          <symbol
             style="overflow:visible"
             id="textext-b6f53550-2"
             overflow="visible">
            <path
               id="path2463"
               d=""
               style="stroke:none" />
          </symbol>
          <symbol
             style="overflow:visible"
             id="textext-b6f53550-3"
             overflow="visible">
            <path
               id="path2466"
               d="M 2.328125,-4.4375 C 2.328125,-4.625 2.328125,-4.625 2.125,-4.625 C 1.671875,-4.1875 1.046875,-4.1875 0.765625,-4.1875 L 0.765625,-3.9375 C 0.921875,-3.9375 1.390625,-3.9375 1.765625,-4.125 L 1.765625,-0.578125 C 1.765625,-0.34375 1.765625,-0.25 1.078125,-0.25 L 0.8125,-0.25 L 0.8125,0 C 0.9375,0 1.796875,-0.03125 2.046875,-0.03125 C 2.265625,-0.03125 3.140625,0 3.296875,0 L 3.296875,-0.25 L 3.03125,-0.25 C 2.328125,-0.25 2.328125,-0.34375 2.328125,-0.578125 L 2.328125,-4.4375 z"
               style="stroke:none" />
          </symbol>
        </g>
      </defs>
      <g
         id="textext-b6f53550-4">
        <g
           id="g2469"
           style="fill:#000000;fill-opacity:1">
          <use
             height="1052.3622"
             width="744.09448"
             id="use2471"
             y="134.765"
             x="223.43201"
             xlink:href="#textext-b6f53550-1" />
        </g>
        <g
           id="g2473"
           style="fill:#000000;fill-opacity:1">
          <use
             height="1052.3622"
             width="744.09448"
             id="use2475"
             y="136.259"
             x="230.99699"
             xlink:href="#textext-b6f53550-3" />
        </g>
      </g>
    </g>
    <g
       transform="translate(-20.187084,103.40926)"
       ns0:text="$R_2$"
       ns0:preamble=""
       id="g2519">
      <defs
         id="defs2521">
        <g
           id="g2523">
          <symbol
             style="overflow:visible"
             overflow="visible"
             id="textext-b5c85e91-0">
            <path
               style="stroke:none"
               d=""
               id="path2526" />
          </symbol>
          <symbol
             style="overflow:visible"
             overflow="visible"
             id="textext-b5c85e91-1">
            <path
               style="stroke:none"
               d="M 3.734375,-6.125 C 3.796875,-6.359375 3.828125,-6.453125 4.015625,-6.484375 C 4.109375,-6.5 4.421875,-6.5 4.625,-6.5 C 5.328125,-6.5 6.4375,-6.5 6.4375,-5.515625 C 6.4375,-5.171875 6.28125,-4.484375 5.890625,-4.09375 C 5.625,-3.84375 5.109375,-3.515625 4.203125,-3.515625 L 3.09375,-3.515625 L 3.734375,-6.125 z M 5.171875,-3.390625 C 6.1875,-3.609375 7.359375,-4.3125 7.359375,-5.3125 C 7.359375,-6.171875 6.46875,-6.8125 5.15625,-6.8125 L 2.328125,-6.8125 C 2.125,-6.8125 2.03125,-6.8125 2.03125,-6.609375 C 2.03125,-6.5 2.125,-6.5 2.3125,-6.5 C 2.328125,-6.5 2.515625,-6.5 2.6875,-6.484375 C 2.875,-6.453125 2.953125,-6.453125 2.953125,-6.3125 C 2.953125,-6.28125 2.953125,-6.25 2.921875,-6.125 L 1.578125,-0.78125 C 1.484375,-0.390625 1.46875,-0.3125 0.671875,-0.3125 C 0.5,-0.3125 0.40625,-0.3125 0.40625,-0.109375 C 0.40625,0 0.53125,0 0.546875,0 C 0.828125,0 1.53125,-0.03125 1.796875,-0.03125 C 2.078125,-0.03125 2.796875,0 3.078125,0 C 3.15625,0 3.265625,0 3.265625,-0.203125 C 3.265625,-0.3125 3.1875,-0.3125 2.984375,-0.3125 C 2.625,-0.3125 2.34375,-0.3125 2.34375,-0.484375 C 2.34375,-0.546875 2.359375,-0.59375 2.375,-0.65625 L 3.03125,-3.296875 L 4.21875,-3.296875 C 5.125,-3.296875 5.296875,-2.734375 5.296875,-2.390625 C 5.296875,-2.25 5.21875,-1.9375 5.15625,-1.703125 C 5.09375,-1.421875 5,-1.0625 5,-0.859375 C 5,0.21875 6.203125,0.21875 6.328125,0.21875 C 7.171875,0.21875 7.53125,-0.78125 7.53125,-0.921875 C 7.53125,-1.046875 7.421875,-1.046875 7.40625,-1.046875 C 7.3125,-1.046875 7.296875,-0.984375 7.28125,-0.90625 C 7.03125,-0.171875 6.59375,0 6.375,0 C 6.046875,0 5.96875,-0.21875 5.96875,-0.609375 C 5.96875,-0.921875 6.03125,-1.421875 6.078125,-1.75 C 6.09375,-1.890625 6.109375,-2.078125 6.109375,-2.21875 C 6.109375,-2.984375 5.4375,-3.296875 5.171875,-3.390625 z"
               id="path2529" />
          </symbol>
          <symbol
             style="overflow:visible"
             overflow="visible"
             id="textext-b5c85e91-2">
            <path
               style="stroke:none"
               d=""
               id="path2532" />
          </symbol>
          <symbol
             style="overflow:visible"
             overflow="visible"
             id="textext-b5c85e91-3">
            <path
               style="stroke:none"
               d="M 3.515625,-1.265625 L 3.28125,-1.265625 C 3.265625,-1.109375 3.1875,-0.703125 3.09375,-0.640625 C 3.046875,-0.59375 2.515625,-0.59375 2.40625,-0.59375 L 1.125,-0.59375 C 1.859375,-1.234375 2.109375,-1.4375 2.515625,-1.765625 C 3.03125,-2.171875 3.515625,-2.609375 3.515625,-3.265625 C 3.515625,-4.109375 2.78125,-4.625 1.890625,-4.625 C 1.03125,-4.625 0.4375,-4.015625 0.4375,-3.375 C 0.4375,-3.03125 0.734375,-2.984375 0.8125,-2.984375 C 0.96875,-2.984375 1.171875,-3.109375 1.171875,-3.359375 C 1.171875,-3.484375 1.125,-3.734375 0.765625,-3.734375 C 0.984375,-4.21875 1.453125,-4.375 1.78125,-4.375 C 2.484375,-4.375 2.84375,-3.828125 2.84375,-3.265625 C 2.84375,-2.65625 2.40625,-2.1875 2.1875,-1.9375 L 0.515625,-0.265625 C 0.4375,-0.203125 0.4375,-0.1875 0.4375,0 L 3.3125,0 L 3.515625,-1.265625 z"
               id="path2535" />
          </symbol>
        </g>
      </defs>
      <g
         id="textext-b5c85e91-4">
        <g
           style="fill:#000000;fill-opacity:1"
           id="g2538">
          <use
             height="1052.3622"
             width="744.09448"
             xlink:href="#textext-b5c85e91-1"
             x="223.43201"
             y="134.765"
             id="use2540" />
        </g>
        <g
           style="fill:#000000;fill-opacity:1"
           id="g2542">
          <use
             height="1052.3622"
             width="744.09448"
             xlink:href="#textext-b5c85e91-3"
             x="230.99699"
             y="136.259"
             id="use2544" />
        </g>
      </g>
    </g>
    <path
       id="path2582"
       d="M 183.59375 242.21875 C 148.23125 242.21875 119.53125 270.91875 119.53125 306.28125 C 119.53125 320.38179 124.08328 333.41522 131.8125 344 L 235.375 344 C 243.10422 333.41522 247.65625 320.38179 247.65625 306.28125 C 247.65625 270.91875 218.95625 242.21875 183.59375 242.21875 z "
       style="fill:none;fill-opacity:1;stroke:#020000;stroke-width:2;stroke-linecap:round;stroke-linejoin:miter;stroke-miterlimit:4;stroke-dasharray:none;stroke-dashoffset:0;stroke-opacity:1" />
    <path
       id="path3357"
       d="M 76.451117,306.84455 L 291.29487,306.84455"
       style="fill:none;fill-rule:evenodd;stroke:#000000;stroke-width:1;stroke-linecap:butt;stroke-linejoin:miter;stroke-opacity:1;stroke-miterlimit:4;stroke-dasharray:8,8;stroke-dashoffset:8.5" />
    <path
       style="fill:none;fill-rule:evenodd;stroke:#000000;stroke-width:1;stroke-linecap:butt;stroke-linejoin:miter;stroke-miterlimit:4;stroke-dasharray:8,8;stroke-dashoffset:8.5;stroke-opacity:1"
       d="M 183.87299,199.42267 L 183.87299,414.26643"
       id="path3361" />
    <path
       transform="matrix(1.6666667,0,0,1.6666667,84.179684,-103.33261)"
       d="M 92.578124,200.995 A 11.132812,11.132812 0 1 1 70.312501,200.995 A 11.132812,11.132812 0 1 1 92.578124,200.995 z"
       sodipodi:ry="11.132812"
       sodipodi:rx="11.132812"
       sodipodi:cy="200.995"
       sodipodi:cx="81.445312"
       id="path3367"
       style="fill:none;fill-opacity:1;stroke:#020000;stroke-width:1.19999993;stroke-linecap:round;stroke-linejoin:miter;stroke-miterlimit:4;stroke-dasharray:none;stroke-dashoffset:0;stroke-opacity:1"
       sodipodi:type="arc" />
    <path
       id="path3373"
       d="M 183.95825,306.86171 L 219.72791,231.73161"
       style="fill:none;fill-rule:evenodd;stroke:#000000;stroke-width:1px;stroke-linecap:butt;stroke-linejoin:miter;stroke-opacity:1;marker-end:url(#Arrow1Mend)" />
    <g
       id="g4723"
       ns0:preamble=""
       ns0:text="$r=R_1+R_2$"
       transform="translate(-14.307176,142.74645)">
      <defs
         id="defs4725">
        <g
           id="g4727">
          <symbol
             id="textext-28995cfa-0"
             overflow="visible"
             style="overflow:visible">
            <path
               id="path4730"
               d=""
               style="stroke:none" />
          </symbol>
          <symbol
             id="textext-28995cfa-1"
             overflow="visible"
             style="overflow:visible">
            <path
               id="path4733"
               d="M 0.875,-0.59375 C 0.84375,-0.4375 0.78125,-0.203125 0.78125,-0.15625 C 0.78125,0.015625 0.921875,0.109375 1.078125,0.109375 C 1.203125,0.109375 1.375,0.03125 1.453125,-0.171875 C 1.46875,-0.203125 1.796875,-1.5625 1.84375,-1.75 C 1.921875,-2.078125 2.109375,-2.765625 2.15625,-3.046875 C 2.203125,-3.171875 2.484375,-3.640625 2.71875,-3.859375 C 2.796875,-3.921875 3.09375,-4.1875 3.515625,-4.1875 C 3.78125,-4.1875 3.921875,-4.0625 3.9375,-4.0625 C 3.640625,-4.015625 3.421875,-3.78125 3.421875,-3.515625 C 3.421875,-3.359375 3.53125,-3.171875 3.796875,-3.171875 C 4.0625,-3.171875 4.34375,-3.40625 4.34375,-3.765625 C 4.34375,-4.109375 4.03125,-4.40625 3.515625,-4.40625 C 2.875,-4.40625 2.4375,-3.921875 2.25,-3.640625 C 2.15625,-4.09375 1.796875,-4.40625 1.328125,-4.40625 C 0.875,-4.40625 0.6875,-4.015625 0.59375,-3.84375 C 0.421875,-3.5 0.296875,-2.90625 0.296875,-2.875 C 0.296875,-2.765625 0.390625,-2.765625 0.40625,-2.765625 C 0.515625,-2.765625 0.515625,-2.78125 0.578125,-3 C 0.75,-3.703125 0.953125,-4.1875 1.3125,-4.1875 C 1.46875,-4.1875 1.609375,-4.109375 1.609375,-3.734375 C 1.609375,-3.515625 1.578125,-3.40625 1.453125,-2.890625 L 0.875,-0.59375 z"
               style="stroke:none" />
          </symbol>
          <symbol
             id="textext-28995cfa-2"
             overflow="visible"
             style="overflow:visible">
            <path
               id="path4736"
               d="M 3.734375,-6.125 C 3.796875,-6.359375 3.828125,-6.453125 4.015625,-6.484375 C 4.109375,-6.5 4.421875,-6.5 4.625,-6.5 C 5.328125,-6.5 6.4375,-6.5 6.4375,-5.515625 C 6.4375,-5.171875 6.28125,-4.484375 5.890625,-4.09375 C 5.625,-3.84375 5.109375,-3.515625 4.203125,-3.515625 L 3.09375,-3.515625 L 3.734375,-6.125 z M 5.171875,-3.390625 C 6.1875,-3.609375 7.359375,-4.3125 7.359375,-5.3125 C 7.359375,-6.171875 6.46875,-6.8125 5.15625,-6.8125 L 2.328125,-6.8125 C 2.125,-6.8125 2.03125,-6.8125 2.03125,-6.609375 C 2.03125,-6.5 2.125,-6.5 2.3125,-6.5 C 2.328125,-6.5 2.515625,-6.5 2.6875,-6.484375 C 2.875,-6.453125 2.953125,-6.453125 2.953125,-6.3125 C 2.953125,-6.28125 2.953125,-6.25 2.921875,-6.125 L 1.578125,-0.78125 C 1.484375,-0.390625 1.46875,-0.3125 0.671875,-0.3125 C 0.5,-0.3125 0.40625,-0.3125 0.40625,-0.109375 C 0.40625,0 0.53125,0 0.546875,0 C 0.828125,0 1.53125,-0.03125 1.796875,-0.03125 C 2.078125,-0.03125 2.796875,0 3.078125,0 C 3.15625,0 3.265625,0 3.265625,-0.203125 C 3.265625,-0.3125 3.1875,-0.3125 2.984375,-0.3125 C 2.625,-0.3125 2.34375,-0.3125 2.34375,-0.484375 C 2.34375,-0.546875 2.359375,-0.59375 2.375,-0.65625 L 3.03125,-3.296875 L 4.21875,-3.296875 C 5.125,-3.296875 5.296875,-2.734375 5.296875,-2.390625 C 5.296875,-2.25 5.21875,-1.9375 5.15625,-1.703125 C 5.09375,-1.421875 5,-1.0625 5,-0.859375 C 5,0.21875 6.203125,0.21875 6.328125,0.21875 C 7.171875,0.21875 7.53125,-0.78125 7.53125,-0.921875 C 7.53125,-1.046875 7.421875,-1.046875 7.40625,-1.046875 C 7.3125,-1.046875 7.296875,-0.984375 7.28125,-0.90625 C 7.03125,-0.171875 6.59375,0 6.375,0 C 6.046875,0 5.96875,-0.21875 5.96875,-0.609375 C 5.96875,-0.921875 6.03125,-1.421875 6.078125,-1.75 C 6.09375,-1.890625 6.109375,-2.078125 6.109375,-2.21875 C 6.109375,-2.984375 5.4375,-3.296875 5.171875,-3.390625 z"
               style="stroke:none" />
          </symbol>
          <symbol
             id="textext-28995cfa-3"
             overflow="visible"
             style="overflow:visible">
            <path
               id="path4739"
               d=""
               style="stroke:none" />
          </symbol>
          <symbol
             id="textext-28995cfa-4"
             overflow="visible"
             style="overflow:visible">
            <path
               id="path4742"
               d="M 6.84375,-3.265625 C 7,-3.265625 7.1875,-3.265625 7.1875,-3.453125 C 7.1875,-3.65625 7,-3.65625 6.859375,-3.65625 L 0.890625,-3.65625 C 0.75,-3.65625 0.5625,-3.65625 0.5625,-3.453125 C 0.5625,-3.265625 0.75,-3.265625 0.890625,-3.265625 L 6.84375,-3.265625 z M 6.859375,-1.328125 C 7,-1.328125 7.1875,-1.328125 7.1875,-1.53125 C 7.1875,-1.71875 7,-1.71875 6.84375,-1.71875 L 0.890625,-1.71875 C 0.75,-1.71875 0.5625,-1.71875 0.5625,-1.53125 C 0.5625,-1.328125 0.75,-1.328125 0.890625,-1.328125 L 6.859375,-1.328125 z"
               style="stroke:none" />
          </symbol>
          <symbol
             id="textext-28995cfa-5"
             overflow="visible"
             style="overflow:visible">
            <path
               id="path4745"
               d="M 4.078125,-2.296875 L 6.859375,-2.296875 C 7,-2.296875 7.1875,-2.296875 7.1875,-2.5 C 7.1875,-2.6875 7,-2.6875 6.859375,-2.6875 L 4.078125,-2.6875 L 4.078125,-5.484375 C 4.078125,-5.625 4.078125,-5.8125 3.875,-5.8125 C 3.671875,-5.8125 3.671875,-5.625 3.671875,-5.484375 L 3.671875,-2.6875 L 0.890625,-2.6875 C 0.75,-2.6875 0.5625,-2.6875 0.5625,-2.5 C 0.5625,-2.296875 0.75,-2.296875 0.890625,-2.296875 L 3.671875,-2.296875 L 3.671875,0.5 C 3.671875,0.640625 3.671875,0.828125 3.875,0.828125 C 4.078125,0.828125 4.078125,0.640625 4.078125,0.5 L 4.078125,-2.296875 z"
               style="stroke:none" />
          </symbol>
          <symbol
             id="textext-28995cfa-6"
             overflow="visible"
             style="overflow:visible">
            <path
               id="path4748"
               d=""
               style="stroke:none" />
          </symbol>
          <symbol
             id="textext-28995cfa-7"
             overflow="visible"
             style="overflow:visible">
            <path
               id="path4751"
               d="M 2.328125,-4.4375 C 2.328125,-4.625 2.328125,-4.625 2.125,-4.625 C 1.671875,-4.1875 1.046875,-4.1875 0.765625,-4.1875 L 0.765625,-3.9375 C 0.921875,-3.9375 1.390625,-3.9375 1.765625,-4.125 L 1.765625,-0.578125 C 1.765625,-0.34375 1.765625,-0.25 1.078125,-0.25 L 0.8125,-0.25 L 0.8125,0 C 0.9375,0 1.796875,-0.03125 2.046875,-0.03125 C 2.265625,-0.03125 3.140625,0 3.296875,0 L 3.296875,-0.25 L 3.03125,-0.25 C 2.328125,-0.25 2.328125,-0.34375 2.328125,-0.578125 L 2.328125,-4.4375 z"
               style="stroke:none" />
          </symbol>
          <symbol
             id="textext-28995cfa-8"
             overflow="visible"
             style="overflow:visible">
            <path
               id="path4754"
               d="M 3.515625,-1.265625 L 3.28125,-1.265625 C 3.265625,-1.109375 3.1875,-0.703125 3.09375,-0.640625 C 3.046875,-0.59375 2.515625,-0.59375 2.40625,-0.59375 L 1.125,-0.59375 C 1.859375,-1.234375 2.109375,-1.4375 2.515625,-1.765625 C 3.03125,-2.171875 3.515625,-2.609375 3.515625,-3.265625 C 3.515625,-4.109375 2.78125,-4.625 1.890625,-4.625 C 1.03125,-4.625 0.4375,-4.015625 0.4375,-3.375 C 0.4375,-3.03125 0.734375,-2.984375 0.8125,-2.984375 C 0.96875,-2.984375 1.171875,-3.109375 1.171875,-3.359375 C 1.171875,-3.484375 1.125,-3.734375 0.765625,-3.734375 C 0.984375,-4.21875 1.453125,-4.375 1.78125,-4.375 C 2.484375,-4.375 2.84375,-3.828125 2.84375,-3.265625 C 2.84375,-2.65625 2.40625,-2.1875 2.1875,-1.9375 L 0.515625,-0.265625 C 0.4375,-0.203125 0.4375,-0.1875 0.4375,0 L 3.3125,0 L 3.515625,-1.265625 z"
               style="stroke:none" />
          </symbol>
        </g>
      </defs>
      <g
         id="textext-28995cfa-9">
        <g
           id="g4757"
           style="fill:#000000;fill-opacity:1">
          <use
             id="use4759"
             y="134.765"
             x="223.43201"
             xlink:href="#textext-28995cfa-1"
             width="744.09448"
             height="1052.3622" />
        </g>
        <g
           id="g4761"
           style="fill:#000000;fill-opacity:1">
          <use
             id="use4763"
             y="134.765"
             x="230.97099"
             xlink:href="#textext-28995cfa-4"
             width="744.09448"
             height="1052.3622" />
        </g>
        <g
           id="g4765"
           style="fill:#000000;fill-opacity:1">
          <use
             id="use4767"
             y="134.765"
             x="241.487"
             xlink:href="#textext-28995cfa-2"
             width="744.09448"
             height="1052.3622" />
        </g>
        <g
           id="g4769"
           style="fill:#000000;fill-opacity:1">
          <use
             id="use4771"
             y="136.259"
             x="249.052"
             xlink:href="#textext-28995cfa-7"
             width="744.09448"
             height="1052.3622" />
        </g>
        <g
           id="g4773"
           style="fill:#000000;fill-opacity:1">
          <use
             id="use4775"
             y="134.765"
             x="255.735"
             xlink:href="#textext-28995cfa-5"
             width="744.09448"
             height="1052.3622" />
        </g>
        <g
           id="g4777"
           style="fill:#000000;fill-opacity:1">
          <use
             id="use4779"
             y="134.765"
             x="265.69699"
             xlink:href="#textext-28995cfa-2"
             width="744.09448"
             height="1052.3622" />
        </g>
        <g
           id="g4781"
           style="fill:#000000;fill-opacity:1">
          <use
             id="use4783"
             y="136.259"
             x="273.26199"
             xlink:href="#textext-28995cfa-8"
             width="744.09448"
             height="1052.3622" />
        </g>
      </g>
    </g>
    <path
       sodipodi:end="5.159914"
       sodipodi:start="4.7140721"
       sodipodi:type="arc"
       style="fill:none;fill-opacity:1;stroke:#020000;stroke-width:0.55555556;stroke-linecap:round;stroke-linejoin:miter;stroke-miterlimit:4;stroke-dasharray:none;stroke-dashoffset:0;stroke-opacity:1"
       id="path4866"
       sodipodi:cx="172.9097"
       sodipodi:cy="296.3656"
       sodipodi:rx="7.5958738"
       sodipodi:ry="7.5958738"
       d="M 172.92248,288.76974 A 7.5958738,7.5958738 0 0 1 176.1967,289.51776 L 172.9097,296.3656 z"
       transform="matrix(1.8,0,0,1.8,-127.36446,-226.61353)" />
    <g
       transform="translate(-37.669009,155.67027)"
       ns0:text="$\\theta$"
       ns0:preamble=""
       id="g4952">
      <defs
         id="defs4954">
        <g
           id="g4956">
          <symbol
             style="overflow:visible"
             overflow="visible"
             id="textext-6281a133-0">
            <path
               style="stroke:none"
               d=""
               id="path4959" />
          </symbol>
          <symbol
             style="overflow:visible"
             overflow="visible"
             id="textext-6281a133-1">
            <path
               style="stroke:none"
               d="M 4.53125,-4.984375 C 4.53125,-5.640625 4.359375,-7.03125 3.34375,-7.03125 C 1.953125,-7.03125 0.421875,-4.21875 0.421875,-1.9375 C 0.421875,-1 0.703125,0.109375 1.609375,0.109375 C 3.015625,0.109375 4.53125,-2.75 4.53125,-4.984375 z M 1.46875,-3.625 C 1.640625,-4.25 1.84375,-5.046875 2.25,-5.765625 C 2.515625,-6.25 2.875,-6.8125 3.328125,-6.8125 C 3.8125,-6.8125 3.875,-6.171875 3.875,-5.609375 C 3.875,-5.109375 3.796875,-4.609375 3.5625,-3.625 L 1.46875,-3.625 z M 3.46875,-3.296875 C 3.359375,-2.84375 3.15625,-2 2.765625,-1.28125 C 2.421875,-0.59375 2.046875,-0.109375 1.609375,-0.109375 C 1.28125,-0.109375 1.078125,-0.40625 1.078125,-1.328125 C 1.078125,-1.75 1.140625,-2.328125 1.390625,-3.296875 L 3.46875,-3.296875 z"
               id="path4962" />
          </symbol>
        </g>
      </defs>
      <g
         id="textext-6281a133-2">
        <g
           style="fill:#000000;fill-opacity:1"
           id="g4965">
          <use
             height="1052.3622"
             width="744.09448"
             xlink:href="#textext-6281a133-1"
             x="223.43201"
             y="134.765"
             id="use4967" />
        </g>
      </g>
    </g>
  </g>
</svg>
