<?xml version="1.0" encoding="UTF-8" standalone="no"?>
<!-- Created with Inkscape (http://www.inkscape.org/) -->
<svg
   xmlns:ns0="http://www.iki.fi/pav/software/textext/"
   xmlns:dc="http://purl.org/dc/elements/1.1/"
   xmlns:cc="http://creativecommons.org/ns#"
   xmlns:rdf="http://www.w3.org/1999/02/22-rdf-syntax-ns#"
   xmlns:svg="http://www.w3.org/2000/svg"
   xmlns="http://www.w3.org/2000/svg"
   xmlns:xlink="http://www.w3.org/1999/xlink"
   xmlns:sodipodi="http://sodipodi.sourceforge.net/DTD/sodipodi-0.dtd"
   xmlns:inkscape="http://www.inkscape.org/namespaces/inkscape"
   width="744.09448819"
   height="1052.3622047"
   id="svg3651"
   version="1.1"
   inkscape:version="0.46"
   sodipodi:docname="5Ex17.svg"
   sodipodi:version="0.32"
   inkscape:output_extension="org.inkscape.output.svg.inkscape">
  <sodipodi:namedview
     id="base"
     pagecolor="#ffffff"
     bordercolor="#666666"
     borderopacity="1.0"
     inkscape:pageopacity="0.0"
     inkscape:pageshadow="2"
     inkscape:zoom="1.0119064"
     inkscape:cx="405.61367"
     inkscape:cy="518.59227"
     inkscape:document-units="px"
     inkscape:current-layer="svg3651"
     showgrid="false"
     inkscape:window-width="1680"
     inkscape:window-height="1011"
     inkscape:window-x="0"
     inkscape:window-y="0"
     inkscape:window-maximized="1" />
  <defs
     id="defs3653">
    <inkscape:perspective
       sodipodi:type="inkscape:persp3d"
       inkscape:vp_x="0 : 526.18109 : 1"
       inkscape:vp_y="0 : 1000 : 0"
       inkscape:vp_z="744.09448 : 526.18109 : 1"
       inkscape:persp3d-origin="372.04724 : 350.78739 : 1"
       id="perspective3659" />
  </defs>
  <metadata
     id="metadata3656">
    <rdf:RDF>
      <cc:Work
         rdf:about="">
        <dc:format>image/svg+xml</dc:format>
        <dc:type
           rdf:resource="http://purl.org/dc/dcmitype/StillImage" />
        <dc:title />
      </cc:Work>
    </rdf:RDF>
  </metadata>
  <g
     inkscape:label="Layer 1"
     inkscape:groupmode="layer"
     id="layer1">
    <path
       style="fill:none;stroke:#000000;stroke-width:1px;stroke-linecap:butt;stroke-linejoin:miter;stroke-opacity:1"
       d="M 596.24125,750.84062 192.52042,747.52138 452.49934,477.19169"
       id="path3661"
       sodipodi:nodetypes="ccc" />
    <path
       sodipodi:type="arc"
       style="fill:none;stroke:#000000;stroke-width:1.29692566;stroke-opacity:1"
       id="path3663"
       sodipodi:cx="517.14288"
       sodipodi:cy="610.93359"
       sodipodi:rx="162.85715"
       sodipodi:ry="155.71428"
       d="m 680.00003,610.93359 a 162.85715,155.71428 0 1 1 -325.71429,0 162.85715,155.71428 0 1 1 325.71429,0 z"
       transform="matrix(0.49872883,-0.30149483,0.54446113,0.86293864,-46.934128,236.66172)" />
    <path
       id="path4175"
       d="M 620,746.6479 468.57143,469.50504 620,746.6479 z"
       style="fill:none;stroke:#000000;stroke-width:1px;stroke-linecap:butt;stroke-linejoin:miter;stroke-opacity:1"
       sodipodi:nodetypes="ccc" />
    <path
       style="fill:none;stroke:#000000;stroke-width:1;stroke-linecap:butt;stroke-linejoin:miter;stroke-opacity:1;stroke-miterlimit:4;stroke-dasharray:8,8;stroke-dashoffset:0"
       d="M 192.69044,747.47279 544.35485,608.63259"
       id="path4177"
       sodipodi:nodetypes="cc" />
    <path
       style="fill:none;stroke:#000000;stroke-width:1;stroke-linecap:butt;stroke-linejoin:miter;stroke-opacity:1;stroke-miterlimit:4;stroke-dasharray:8,8;stroke-dashoffset:0"
       d="m 544.35488,607.93381 0,111.10709"
       id="path4191" />
    <path
       style="fill:none;stroke:#000000;stroke-width:1px;stroke-linecap:butt;stroke-linejoin:miter;stroke-opacity:1"
       d="M -53.019529,747.7397 L 193.23355,747.7397"
       id="path4193" />
    <path
       style="fill:none;stroke:#000000;stroke-width:1px;stroke-linecap:butt;stroke-linejoin:miter;stroke-opacity:1"
       d="M -19.957191,870.20207 192.17062,747.69854"
       id="path4195" />
    <path
       id="path4197"
       d="m 192.15387,502.81493 0,489.84952"
       style="fill:none;stroke:#000000;stroke-width:1px;stroke-linecap:butt;stroke-linejoin:miter;stroke-opacity:1" />
    <path
       style="fill:none;fill-rule:evenodd;stroke:#000000;stroke-width:1;stroke-linecap:butt;stroke-linejoin:miter;stroke-opacity:1;stroke-miterlimit:4;stroke-dasharray:8,8;stroke-dashoffset:0"
       d="M 192.21146,746.50385 L 544.02265,713.39802"
       id="path19125" />
    <path
       style="fill:none;fill-rule:evenodd;stroke:#000000;stroke-width:1px;stroke-linecap:butt;stroke-linejoin:miter;stroke-opacity:1"
       d="M 528.45797,714.88037 L 528.45797,703.02157 L 544.26971,703.02157"
       id="path19638" />
    <path
       id="path19640"
       d="M 526.88717,615.99571 L 522.1649,605.11769 L 538.85264,598.29724"
       style="fill:none;fill-rule:evenodd;stroke:#000000;stroke-width:1px;stroke-linecap:butt;stroke-linejoin:miter;stroke-opacity:1"
       sodipodi:nodetypes="ccc" />
    <g
       transform="matrix(6.4341406,0,0,6.4341406,-1178.8152,-121.17561)"
       ns0:text="$\\alpha$"
       ns0:preamble=""
       id="g19662">
      <defs
         id="defs19664">
        <g
           id="g19666">
          <symbol
             style="overflow:visible"
             overflow="visible"
             id="textext-9de250b6-0">
            <path
               style="stroke:none"
               d=""
               id="path19669" />
          </symbol>
          <symbol
             style="overflow:visible"
             overflow="visible"
             id="textext-9de250b6-1">
            <path
               style="stroke:none"
               d="M 4.75,-2.359375 C 4.75,-3.921875 3.828125,-4.40625 3.09375,-4.40625 C 1.71875,-4.40625 0.40625,-2.984375 0.40625,-1.578125 C 0.40625,-0.640625 1,0.109375 2.03125,0.109375 C 2.65625,0.109375 3.375,-0.125 4.125,-0.734375 C 4.25,-0.203125 4.578125,0.109375 5.03125,0.109375 C 5.5625,0.109375 5.875,-0.4375 5.875,-0.59375 C 5.875,-0.671875 5.8125,-0.703125 5.75,-0.703125 C 5.6875,-0.703125 5.65625,-0.671875 5.625,-0.59375 C 5.4375,-0.109375 5.078125,-0.109375 5.0625,-0.109375 C 4.75,-0.109375 4.75,-0.890625 4.75,-1.125 C 4.75,-1.328125 4.75,-1.359375 4.859375,-1.46875 C 5.796875,-2.65625 6,-3.8125 6,-3.8125 C 6,-3.84375 5.984375,-3.921875 5.875,-3.921875 C 5.78125,-3.921875 5.78125,-3.890625 5.734375,-3.703125 C 5.546875,-3.078125 5.21875,-2.328125 4.75,-1.734375 L 4.75,-2.359375 z M 4.09375,-0.984375 C 3.203125,-0.21875 2.4375,-0.109375 2.046875,-0.109375 C 1.453125,-0.109375 1.140625,-0.5625 1.140625,-1.203125 C 1.140625,-1.6875 1.40625,-2.765625 1.71875,-3.265625 C 2.1875,-4 2.734375,-4.1875 3.078125,-4.1875 C 4.0625,-4.1875 4.0625,-2.875 4.0625,-2.109375 C 4.0625,-1.734375 4.0625,-1.15625 4.09375,-0.984375 z"
               id="path19672" />
          </symbol>
        </g>
      </defs>
      <g
         id="textext-9de250b6-2">
        <g
           style="fill:#000000;fill-opacity:1"
           id="g19675">
          <use
             height="1052.3622"
             width="744.09448"
             xlink:href="#textext-9de250b6-1"
             x="223.43201"
             y="134.765"
             id="use19677" />
        </g>
      </g>
    </g>
    <path
       transform="matrix(2.2088246,0,0,2.1959998,-256.48369,-934.933)"
       sodipodi:end="6.3004546"
       sodipodi:start="5.9222308"
       d="M 225.87906,757.22201 A 24.457537,24.457537 0 0 1 227.45145,766.28196 L 202.99756,765.85962 z"
       sodipodi:ry="24.457537"
       sodipodi:rx="24.457537"
       sodipodi:cy="765.85962"
       sodipodi:cx="202.99756"
       id="path19741"
       style="fill:none;fill-opacity:1;stroke:#020000;stroke-width:0.45404953;stroke-linecap:butt;stroke-linejoin:miter;stroke-miterlimit:4;stroke-dasharray:none;stroke-dashoffset:0;stroke-opacity:1"
       sodipodi:type="arc" />
    <g
       id="g19771"
       ns0:preamble=""
       ns0:text="$r$"
       transform="matrix(6.9088853,0,0,6.9088853,-966.16508,-230.50513)">
      <defs
         id="defs19773">
        <g
           id="g19775">
          <symbol
             id="textext-f1b0f9d8-0"
             overflow="visible"
             style="overflow:visible">
            <path
               id="path19778"
               d=""
               style="stroke:none" />
          </symbol>
          <symbol
             id="textext-f1b0f9d8-1"
             overflow="visible"
             style="overflow:visible">
            <path
               id="path19781"
               d="M 0.875,-0.59375 C 0.84375,-0.4375 0.78125,-0.203125 0.78125,-0.15625 C 0.78125,0.015625 0.921875,0.109375 1.078125,0.109375 C 1.203125,0.109375 1.375,0.03125 1.453125,-0.171875 C 1.46875,-0.203125 1.796875,-1.5625 1.84375,-1.75 C 1.921875,-2.078125 2.109375,-2.765625 2.15625,-3.046875 C 2.203125,-3.171875 2.484375,-3.640625 2.71875,-3.859375 C 2.796875,-3.921875 3.09375,-4.1875 3.515625,-4.1875 C 3.78125,-4.1875 3.921875,-4.0625 3.9375,-4.0625 C 3.640625,-4.015625 3.421875,-3.78125 3.421875,-3.515625 C 3.421875,-3.359375 3.53125,-3.171875 3.796875,-3.171875 C 4.0625,-3.171875 4.34375,-3.40625 4.34375,-3.765625 C 4.34375,-4.109375 4.03125,-4.40625 3.515625,-4.40625 C 2.875,-4.40625 2.4375,-3.921875 2.25,-3.640625 C 2.15625,-4.09375 1.796875,-4.40625 1.328125,-4.40625 C 0.875,-4.40625 0.6875,-4.015625 0.59375,-3.84375 C 0.421875,-3.5 0.296875,-2.90625 0.296875,-2.875 C 0.296875,-2.765625 0.390625,-2.765625 0.40625,-2.765625 C 0.515625,-2.765625 0.515625,-2.78125 0.578125,-3 C 0.75,-3.703125 0.953125,-4.1875 1.3125,-4.1875 C 1.46875,-4.1875 1.609375,-4.109375 1.609375,-3.734375 C 1.609375,-3.515625 1.578125,-3.40625 1.453125,-2.890625 L 0.875,-0.59375 z"
               style="stroke:none" />
          </symbol>
        </g>
      </defs>
      <g
         id="textext-f1b0f9d8-2">
        <g
           id="g19784"
           style="fill:#000000;fill-opacity:1">
          <use
             id="use19786"
             y="134.765"
             x="223.43201"
             xlink:href="#textext-f1b0f9d8-1"
             width="744.09448"
             height="1052.3622" />
        </g>
      </g>
    </g>
    <g
       transform="matrix(6.9088853,0,0,6.9088853,-1046.7061,-368.85785)"
       ns0:text="$r$"
       ns0:preamble=""
       id="g19858">
      <defs
         id="defs19860">
        <g
           id="g19862">
          <symbol
             style="overflow:visible"
             overflow="visible"
             id="symbol19864">
            <path
               style="stroke:none"
               d=""
               id="path19866" />
          </symbol>
          <symbol
             style="overflow:visible"
             overflow="visible"
             id="symbol19868">
            <path
               style="stroke:none"
               d="M 0.875,-0.59375 C 0.84375,-0.4375 0.78125,-0.203125 0.78125,-0.15625 C 0.78125,0.015625 0.921875,0.109375 1.078125,0.109375 C 1.203125,0.109375 1.375,0.03125 1.453125,-0.171875 C 1.46875,-0.203125 1.796875,-1.5625 1.84375,-1.75 C 1.921875,-2.078125 2.109375,-2.765625 2.15625,-3.046875 C 2.203125,-3.171875 2.484375,-3.640625 2.71875,-3.859375 C 2.796875,-3.921875 3.09375,-4.1875 3.515625,-4.1875 C 3.78125,-4.1875 3.921875,-4.0625 3.9375,-4.0625 C 3.640625,-4.015625 3.421875,-3.78125 3.421875,-3.515625 C 3.421875,-3.359375 3.53125,-3.171875 3.796875,-3.171875 C 4.0625,-3.171875 4.34375,-3.40625 4.34375,-3.765625 C 4.34375,-4.109375 4.03125,-4.40625 3.515625,-4.40625 C 2.875,-4.40625 2.4375,-3.921875 2.25,-3.640625 C 2.15625,-4.09375 1.796875,-4.40625 1.328125,-4.40625 C 0.875,-4.40625 0.6875,-4.015625 0.59375,-3.84375 C 0.421875,-3.5 0.296875,-2.90625 0.296875,-2.875 C 0.296875,-2.765625 0.390625,-2.765625 0.40625,-2.765625 C 0.515625,-2.765625 0.515625,-2.78125 0.578125,-3 C 0.75,-3.703125 0.953125,-4.1875 1.3125,-4.1875 C 1.46875,-4.1875 1.609375,-4.109375 1.609375,-3.734375 C 1.609375,-3.515625 1.578125,-3.40625 1.453125,-2.890625 L 0.875,-0.59375 z"
               id="path19870" />
          </symbol>
        </g>
      </defs>
      <g
         id="g19872">
        <g
           style="fill:#000000;fill-opacity:1"
           id="g19874">
          <use
             height="1052.3622"
             width="744.09448"
             xlink:href="#textext-f1b0f9d8-1"
             x="223.43201"
             y="134.765"
             id="use19876" />
        </g>
      </g>
    </g>
  </g>
  <g
     id="g14807"
     ns0:preamble=""
     ns0:text="$h$"
     transform="matrix(6.1283049,0,0,6.1283049,-998.89826,-134.30054)"
     inkscape:export-xdpi="260.67999"
     inkscape:export-ydpi="260.67999">
    <defs
       id="defs14809">
      <g
         id="g14811">
        <symbol
           id="textext-ae17f59f-0"
           overflow="visible"
           style="overflow:visible">
          <path
             id="path14814"
             d=""
             style="stroke:none" />
        </symbol>
        <symbol
           id="textext-ae17f59f-1"
           overflow="visible"
           style="overflow:visible">
          <path
             id="path14817"
             d="M 2.859375,-6.8125 C 2.859375,-6.8125 2.859375,-6.921875 2.734375,-6.921875 C 2.5,-6.921875 1.78125,-6.84375 1.515625,-6.8125 C 1.4375,-6.8125 1.328125,-6.796875 1.328125,-6.625 C 1.328125,-6.5 1.421875,-6.5 1.5625,-6.5 C 2.046875,-6.5 2.0625,-6.4375 2.0625,-6.328125 L 2.03125,-6.125 L 0.59375,-0.390625 C 0.546875,-0.25 0.546875,-0.234375 0.546875,-0.171875 C 0.546875,0.0625 0.75,0.109375 0.84375,0.109375 C 1,0.109375 1.15625,-0.015625 1.203125,-0.15625 L 1.390625,-0.90625 C 1.46875,-1.203125 1.546875,-1.5 1.609375,-1.796875 C 1.671875,-2.03125 1.734375,-2.25 1.78125,-2.46875 C 1.796875,-2.53125 1.890625,-2.859375 1.890625,-2.921875 C 1.921875,-3.015625 2.234375,-3.5625 2.578125,-3.84375 C 2.796875,-4 3.09375,-4.1875 3.53125,-4.1875 C 3.953125,-4.1875 4.0625,-3.84375 4.0625,-3.484375 C 4.0625,-2.953125 3.6875,-1.859375 3.453125,-1.25 C 3.375,-1.03125 3.3125,-0.90625 3.3125,-0.703125 C 3.3125,-0.234375 3.671875,0.109375 4.140625,0.109375 C 5.078125,0.109375 5.4375,-1.34375 5.4375,-1.421875 C 5.4375,-1.53125 5.359375,-1.53125 5.328125,-1.53125 C 5.21875,-1.53125 5.21875,-1.5 5.171875,-1.34375 C 5.03125,-0.8125 4.703125,-0.109375 4.15625,-0.109375 C 3.984375,-0.109375 3.921875,-0.203125 3.921875,-0.4375 C 3.921875,-0.6875 4,-0.921875 4.09375,-1.140625 C 4.25,-1.578125 4.703125,-2.765625 4.703125,-3.34375 C 4.703125,-3.984375 4.3125,-4.40625 3.5625,-4.40625 C 2.9375,-4.40625 2.453125,-4.09375 2.078125,-3.640625 L 2.859375,-6.8125 z"
             style="stroke:none" />
        </symbol>
      </g>
    </defs>
    <g
       id="textext-ae17f59f-2">
      <g
         id="g14820"
         style="fill:#000000;fill-opacity:1">
        <use
           id="use14822"
           y="134.765"
           x="223.43201"
           xlink:href="#textext-ae17f59f-1"
           width="744.09448"
           height="1052.3622" />
      </g>
    </g>
  </g>
</svg>
