<?xml version="1.0" encoding="UTF-8" standalone="no"?>
<!-- Created with Inkscape (http://www.inkscape.org/) -->
<svg
   xmlns:ns0="http://www.iki.fi/pav/software/textext/"
   xmlns:dc="http://purl.org/dc/elements/1.1/"
   xmlns:cc="http://creativecommons.org/ns#"
   xmlns:rdf="http://www.w3.org/1999/02/22-rdf-syntax-ns#"
   xmlns:svg="http://www.w3.org/2000/svg"
   xmlns="http://www.w3.org/2000/svg"
   xmlns:xlink="http://www.w3.org/1999/xlink"
   xmlns:sodipodi="http://sodipodi.sourceforge.net/DTD/sodipodi-0.dtd"
   xmlns:inkscape="http://www.inkscape.org/namespaces/inkscape"
   width="744.09448819"
   height="1052.3622047"
   id="svg2"
   version="1.1"
   inkscape:version="0.46"
   sodipodi:docname="5Ex29.svg"
   sodipodi:version="0.32"
   inkscape:output_extension="org.inkscape.output.svg.inkscape"
   inkscape:export-filename="/home/andrei/Work/ClassicalMechanics/HW3/5Ex29.png"
   inkscape:export-xdpi="260.67999"
   inkscape:export-ydpi="260.67999">
  <sodipodi:namedview
     id="base"
     pagecolor="#ffffff"
     bordercolor="#666666"
     borderopacity="1.0"
     inkscape:pageopacity="0.0"
     inkscape:pageshadow="2"
     inkscape:zoom="0.7576194"
     inkscape:cx="-4.2973118"
     inkscape:cy="661.44541"
     inkscape:document-units="px"
     inkscape:current-layer="svg2"
     showgrid="false"
     inkscape:window-width="1280"
     inkscape:window-height="726"
     inkscape:window-x="86"
     inkscape:window-y="30"
     inkscape:window-maximized="1" />
  <defs
     id="defs4">
    <inkscape:perspective
       id="perspective10"
       inkscape:persp3d-origin="372.04724 : 350.78739 : 1"
       inkscape:vp_z="744.09448 : 526.18109 : 1"
       inkscape:vp_y="0 : 1000 : 0"
       inkscape:vp_x="0 : 526.18109 : 1"
       sodipodi:type="inkscape:persp3d" />
  </defs>
  <metadata
     id="metadata7">
    <rdf:RDF>
      <cc:Work
         rdf:about="">
        <dc:format>image/svg+xml</dc:format>
        <dc:type
           rdf:resource="http://purl.org/dc/dcmitype/StillImage" />
        <dc:title />
      </cc:Work>
    </rdf:RDF>
  </metadata>
  <g
     id="layer1"
     inkscape:groupmode="layer"
     inkscape:label="Layer 1">
    <rect
       transform="matrix(0.42575813,0.90483701,-0.90483701,0.42575813,0,0)"
       y="-135.81512"
       x="448.36639"
       height="200"
       width="200"
       id="rect2816"
       style="fill:#ffffff;fill-opacity:1;stroke:#000000;stroke-width:1;stroke-opacity:1" />
    <path
       id="path2818"
       d="m 219.30384,660.74827 0,-293.34305"
       style="fill:none;stroke:#000000;stroke-width:1px;stroke-linecap:butt;stroke-linejoin:miter;stroke-opacity:1" />
    <path
       id="path2836"
       d="M 218.44742,614.14742 265.96468,480.17513"
       style="fill:none;stroke:#000000;stroke-width:1px;stroke-linecap:butt;stroke-linejoin:miter;stroke-opacity:1" />
    <path
       style="fill:none;stroke:#000000;stroke-width:1px;stroke-linecap:butt;stroke-linejoin:miter;stroke-opacity:1"
       d="m 365.46871,613.55759 -293.34305,0"
       id="path2838" />
    <path
       transform="matrix(0.47058822,0,0,0.47058822,145.3081,260.65471)"
       d="m 262.00491,469.28577 a 5.6096768,5.6096768 0 1 1 -11.21935,0 5.6096768,5.6096768 0 1 1 11.21935,0 z"
       sodipodi:ry="5.6096768"
       sodipodi:rx="5.6096768"
       sodipodi:cy="469.28577"
       sodipodi:cx="256.39523"
       id="path2877"
       style="fill:#000000;fill-opacity:1;stroke:#000000;stroke-width:2.125;stroke-opacity:1"
       sodipodi:type="arc" />
    <g
       ns0:text="$\\frac{\\sqrt{l}}{2}$"
       ns0:preamble=""
       transform="matrix(4.3983729,0,0,4.3983729,-731.84922,-43.158638)"
       id="g14589">
      <defs
         id="defs14591">
        <g
           id="g14593">
          <symbol
             style="overflow:visible"
             overflow="visible"
             id="textext-d024f410-0">
            <path
               style="stroke:none"
               d=""
               id="path14596" />
          </symbol>
          <symbol
             style="overflow:visible"
             overflow="visible"
             id="textext-d024f410-1">
            <path
               style="stroke:none"
               d="M 3.09375,5.859375 L 1.71875,3.15625 C 1.671875,3.078125 1.671875,3.046875 1.609375,3.046875 C 1.578125,3.046875 1.5625,3.046875 1.5,3.09375 L 0.75,3.609375 C 0.671875,3.65625 0.65625,3.671875 0.65625,3.71875 C 0.65625,3.8125 0.75,3.8125 0.78125,3.8125 L 1.25,3.5 L 2.78125,6.515625 C 2.828125,6.609375 2.84375,6.625 2.9375,6.625 C 3,6.625 3.078125,6.625 3.140625,6.5 L 6.65625,-0.03125 C 6.703125,-0.125 6.703125,-0.15625 6.703125,-0.171875 C 6.703125,-0.28125 6.609375,-0.34375 6.53125,-0.34375 C 6.4375,-0.34375 6.390625,-0.265625 6.359375,-0.21875 L 3.09375,5.859375 z"
               id="path14599" />
          </symbol>
          <symbol
             style="overflow:visible"
             overflow="visible"
             id="textext-d024f410-2">
            <path
               style="stroke:none"
               d=""
               id="path14602" />
          </symbol>
          <symbol
             style="overflow:visible"
             overflow="visible"
             id="textext-d024f410-3">
            <path
               style="stroke:none"
               d="M 1.96875,-4.625 C 1.96875,-4.640625 2,-4.734375 2,-4.734375 C 2,-4.78125 1.96875,-4.84375 1.875,-4.84375 C 1.734375,-4.84375 1.15625,-4.78125 0.984375,-4.765625 C 0.9375,-4.765625 0.84375,-4.75 0.84375,-4.609375 C 0.84375,-4.515625 0.9375,-4.515625 1.015625,-4.515625 C 1.359375,-4.515625 1.359375,-4.453125 1.359375,-4.40625 C 1.359375,-4.359375 1.34375,-4.3125 1.328125,-4.25 L 0.453125,-0.8125 C 0.4375,-0.734375 0.4375,-0.65625 0.4375,-0.59375 C 0.4375,-0.140625 0.828125,0.0625 1.15625,0.0625 C 1.328125,0.0625 1.546875,0.015625 1.71875,-0.296875 C 1.875,-0.5625 1.96875,-0.96875 1.96875,-1 C 1.96875,-1.09375 1.875,-1.09375 1.859375,-1.09375 C 1.75,-1.09375 1.734375,-1.046875 1.71875,-0.921875 C 1.625,-0.578125 1.484375,-0.125 1.1875,-0.125 C 1,-0.125 0.953125,-0.296875 0.953125,-0.46875 C 0.953125,-0.546875 0.96875,-0.671875 1,-0.75 L 1.96875,-4.625 z"
               id="path14605" />
          </symbol>
          <symbol
             style="overflow:visible"
             overflow="visible"
             id="textext-d024f410-4">
            <path
               style="stroke:none"
               d=""
               id="path14608" />
          </symbol>
          <symbol
             style="overflow:visible"
             overflow="visible"
             id="textext-d024f410-5">
            <path
               style="stroke:none"
               d="M 3.515625,-1.265625 L 3.28125,-1.265625 C 3.265625,-1.109375 3.1875,-0.703125 3.09375,-0.640625 C 3.046875,-0.59375 2.515625,-0.59375 2.40625,-0.59375 L 1.125,-0.59375 C 1.859375,-1.234375 2.109375,-1.4375 2.515625,-1.765625 C 3.03125,-2.171875 3.515625,-2.609375 3.515625,-3.265625 C 3.515625,-4.109375 2.78125,-4.625 1.890625,-4.625 C 1.03125,-4.625 0.4375,-4.015625 0.4375,-3.375 C 0.4375,-3.03125 0.734375,-2.984375 0.8125,-2.984375 C 0.96875,-2.984375 1.171875,-3.109375 1.171875,-3.359375 C 1.171875,-3.484375 1.125,-3.734375 0.765625,-3.734375 C 0.984375,-4.21875 1.453125,-4.375 1.78125,-4.375 C 2.484375,-4.375 2.84375,-3.828125 2.84375,-3.265625 C 2.84375,-2.65625 2.40625,-2.1875 2.1875,-1.9375 L 0.515625,-0.265625 C 0.4375,-0.203125 0.4375,-0.1875 0.4375,0 L 3.3125,0 L 3.515625,-1.265625 z"
               id="path14611" />
          </symbol>
        </g>
      </defs>
      <g
         id="textext-d024f410-6">
        <g
           style="fill:#000000;fill-opacity:1"
           id="g14614">
          <use
             height="1052.3622"
             width="744.09448"
             xlink:href="#textext-d024f410-1"
             x="224.62801"
             y="125.48"
             id="use14616" />
        </g>
        <path
           style="fill:none;stroke:#000000;stroke-width:0.33899999;stroke-linecap:butt;stroke-linejoin:miter;stroke-miterlimit:10;stroke-opacity:1"
           d="M -0.001125,0.00140625 L 2.561375,0.00140625"
           transform="matrix(1,0,0,-1,231.173,125.31)"
           id="path14618" />
        <g
           style="fill:#000000;fill-opacity:1"
           id="g14620">
          <use
             height="1052.3622"
             width="744.09448"
             xlink:href="#textext-d024f410-3"
             x="231.173"
             y="131.468"
             id="use14622" />
        </g>
        <path
           style="fill:none;stroke:#000000;stroke-width:0.398;stroke-linecap:butt;stroke-linejoin:miter;stroke-miterlimit:10;stroke-opacity:1"
           d="M 0.00090625,0.0015625 L 9.106375,0.0015625"
           transform="matrix(1,0,0,-1,224.628,132.9)"
           id="path14624" />
        <g
           style="fill:#000000;fill-opacity:1"
           id="g14626">
          <use
             height="1052.3622"
             width="744.09448"
             xlink:href="#textext-d024f410-5"
             x="227.194"
             y="138.826"
             id="use14628" />
        </g>
      </g>
    </g>
    <g
       id="g14708"
       ns0:preamble=""
       ns0:text="$l$"
       transform="matrix(6.5750744,0,0,6.5750744,-1103.8981,-432.92726)">
      <defs
         id="defs14710">
        <g
           id="g14712">
          <symbol
             id="textext-eb1b1f81-0"
             overflow="visible"
             style="overflow:visible">
            <path
               id="path14715"
               d=""
               style="stroke:none" />
          </symbol>
          <symbol
             id="textext-eb1b1f81-1"
             overflow="visible"
             style="overflow:visible">
            <path
               id="path14718"
               d="M 2.578125,-6.8125 C 2.578125,-6.8125 2.578125,-6.921875 2.4375,-6.921875 C 2.21875,-6.921875 1.484375,-6.84375 1.21875,-6.8125 C 1.140625,-6.8125 1.03125,-6.796875 1.03125,-6.609375 C 1.03125,-6.5 1.140625,-6.5 1.28125,-6.5 C 1.765625,-6.5 1.78125,-6.40625 1.78125,-6.328125 L 1.75,-6.125 L 0.484375,-1.140625 C 0.453125,-1.03125 0.4375,-0.96875 0.4375,-0.8125 C 0.4375,-0.234375 0.875,0.109375 1.34375,0.109375 C 1.671875,0.109375 1.921875,-0.09375 2.09375,-0.453125 C 2.265625,-0.828125 2.390625,-1.40625 2.390625,-1.421875 C 2.390625,-1.53125 2.296875,-1.53125 2.265625,-1.53125 C 2.171875,-1.53125 2.15625,-1.484375 2.140625,-1.34375 C 1.96875,-0.703125 1.78125,-0.109375 1.375,-0.109375 C 1.078125,-0.109375 1.078125,-0.421875 1.078125,-0.5625 C 1.078125,-0.8125 1.09375,-0.859375 1.140625,-1.046875 L 2.578125,-6.8125 z"
               style="stroke:none" />
          </symbol>
        </g>
      </defs>
      <g
         id="textext-eb1b1f81-2">
        <g
           id="g14721"
           style="fill:#000000;fill-opacity:1">
          <use
             id="use14723"
             y="134.765"
             x="223.43201"
             xlink:href="#textext-eb1b1f81-1"
             width="744.09448"
             height="1052.3622" />
        </g>
      </g>
    </g>
  </g>
  <g
     id="g14514"
     ns0:preamble=""
     ns0:text="$\\theta$"
     transform="matrix(4.3983729,0,0,4.3983729,-760.66355,-43.232199)">
    <defs
       id="defs14516">
      <g
         id="g14518">
        <symbol
           id="textext-6281a133-0"
           overflow="visible"
           style="overflow:visible">
          <path
             id="path14521"
             d=""
             style="stroke:none" />
        </symbol>
        <symbol
           id="textext-6281a133-1"
           overflow="visible"
           style="overflow:visible">
          <path
             id="path14524"
             d="M 4.53125,-4.984375 C 4.53125,-5.640625 4.359375,-7.03125 3.34375,-7.03125 C 1.953125,-7.03125 0.421875,-4.21875 0.421875,-1.9375 C 0.421875,-1 0.703125,0.109375 1.609375,0.109375 C 3.015625,0.109375 4.53125,-2.75 4.53125,-4.984375 z M 1.46875,-3.625 C 1.640625,-4.25 1.84375,-5.046875 2.25,-5.765625 C 2.515625,-6.25 2.875,-6.8125 3.328125,-6.8125 C 3.8125,-6.8125 3.875,-6.171875 3.875,-5.609375 C 3.875,-5.109375 3.796875,-4.609375 3.5625,-3.625 L 1.46875,-3.625 z M 3.46875,-3.296875 C 3.359375,-2.84375 3.15625,-2 2.765625,-1.28125 C 2.421875,-0.59375 2.046875,-0.109375 1.609375,-0.109375 C 1.28125,-0.109375 1.078125,-0.40625 1.078125,-1.328125 C 1.078125,-1.75 1.140625,-2.328125 1.390625,-3.296875 L 3.46875,-3.296875 z"
             style="stroke:none" />
        </symbol>
      </g>
    </defs>
    <g
       id="textext-6281a133-2">
      <g
         id="g14527"
         style="fill:#000000;fill-opacity:1">
        <use
           id="use14529"
           y="134.765"
           x="223.43201"
           xlink:href="#textext-6281a133-1"
           width="744.09448"
           height="1052.3622" />
      </g>
    </g>
  </g>
  <path
     sodipodi:type="arc"
     style="fill:none;fill-opacity:1;stroke:#020000;stroke-width:1.00000012;stroke-linecap:butt;stroke-linejoin:miter;stroke-miterlimit:4;stroke-dasharray:none;stroke-dashoffset:0;stroke-opacity:1"
     id="path14877"
     sodipodi:cx="217.45747"
     sodipodi:cy="615.7973"
     sodipodi:rx="16.829031"
     sodipodi:ry="16.829031"
     d="M 217.21002,598.97009 A 16.829031,16.829031 0 0 1 228.28136,602.91088"
     transform="translate(2.8048385,-25.078555)"
     sodipodi:start="4.6976842"
     sodipodi:end="5.4110165"
     sodipodi:open="true" />
</svg>
