<?xml version="1.0" encoding="UTF-8" standalone="no"?>
<!-- Created with Inkscape (http://www.inkscape.org/) -->
<svg
   xmlns:ns0="http://www.iki.fi/pav/software/textext/"
   xmlns:dc="http://purl.org/dc/elements/1.1/"
   xmlns:cc="http://creativecommons.org/ns#"
   xmlns:rdf="http://www.w3.org/1999/02/22-rdf-syntax-ns#"
   xmlns:svg="http://www.w3.org/2000/svg"
   xmlns="http://www.w3.org/2000/svg"
   xmlns:xlink="http://www.w3.org/1999/xlink"
   xmlns:sodipodi="http://sodipodi.sourceforge.net/DTD/sodipodi-0.dtd"
   xmlns:inkscape="http://www.inkscape.org/namespaces/inkscape"
   width="744.09448819"
   height="1052.3622047"
   id="svg2"
   sodipodi:version="0.32"
   inkscape:version="0.46"
   sodipodi:docname="8-19.svg"
   inkscape:output_extension="org.inkscape.output.svg.inkscape"
   inkscape:export-filename="/home/andrei/Work/ClassicalMechanics/HW5/8-19.png"
   inkscape:export-xdpi="260.67999"
   inkscape:export-ydpi="260.67999">
  <sodipodi:namedview
     id="base"
     pagecolor="#ffffff"
     bordercolor="#666666"
     borderopacity="1.0"
     gridtolerance="10000"
     guidetolerance="10"
     objecttolerance="10"
     inkscape:pageopacity="0.0"
     inkscape:pageshadow="2"
     inkscape:zoom="0.49497475"
     inkscape:cx="834.27948"
     inkscape:cy="514.1742"
     inkscape:document-units="px"
     inkscape:current-layer="layer1"
     showgrid="false"
     inkscape:window-width="1680"
     inkscape:window-height="1011"
     inkscape:window-x="0"
     inkscape:window-y="0" />
  <defs
     id="defs4">
    <inkscape:perspective
       sodipodi:type="inkscape:persp3d"
       inkscape:vp_x="0 : 526.18109 : 1"
       inkscape:vp_y="0 : 1000 : 0"
       inkscape:vp_z="744.09448 : 526.18109 : 1"
       inkscape:persp3d-origin="372.04724 : 350.78739 : 1"
       id="perspective10" />
  </defs>
  <metadata
     id="metadata7">
    <rdf:RDF>
      <cc:Work
         rdf:about="">
        <dc:format>image/svg+xml</dc:format>
        <dc:type
           rdf:resource="http://purl.org/dc/dcmitype/StillImage" />
      </cc:Work>
    </rdf:RDF>
  </metadata>
  <g
     inkscape:label="Layer 1"
     inkscape:groupmode="layer"
     id="layer1">
    <path
       style="fill:none;fill-opacity:1;stroke:#040000;stroke-width:5;stroke-linecap:square;stroke-linejoin:miter;stroke-miterlimit:4;stroke-dasharray:none;stroke-dashoffset:0;stroke-opacity:1"
       d="M 86.181457,337.18364 C 109.51928,513.41835 206.3886,645.68366 322.24396,645.68364 C 438.09989,645.68364 534.96925,513.41964 558.30646,337.18364"
       id="path2383"
       sodipodi:nodetypes="csc" />
    <g
       id="g3255"
       transform="matrix(5.8203307,0,0,5.8203307,-747.16339,-205.09734)"
       ns0:preamble=""
       ns0:text="$ax^2$">
      <defs
         id="defs3257">
        <g
           id="g3259">
          <symbol
             style="overflow:visible"
             id="textext-8d10c646-0"
             overflow="visible">
            <path
               id="path3262"
               d=""
               style="stroke:none" />
          </symbol>
          <symbol
             style="overflow:visible"
             id="textext-8d10c646-1"
             overflow="visible">
            <path
               id="path3265"
               d="M 3.71875,-3.765625 C 3.53125,-4.140625 3.25,-4.40625 2.796875,-4.40625 C 1.640625,-4.40625 0.40625,-2.9375 0.40625,-1.484375 C 0.40625,-0.546875 0.953125,0.109375 1.71875,0.109375 C 1.921875,0.109375 2.421875,0.0625 3.015625,-0.640625 C 3.09375,-0.21875 3.453125,0.109375 3.921875,0.109375 C 4.28125,0.109375 4.5,-0.125 4.671875,-0.4375 C 4.828125,-0.796875 4.96875,-1.40625 4.96875,-1.421875 C 4.96875,-1.53125 4.875,-1.53125 4.84375,-1.53125 C 4.75,-1.53125 4.734375,-1.484375 4.703125,-1.34375 C 4.53125,-0.703125 4.359375,-0.109375 3.953125,-0.109375 C 3.671875,-0.109375 3.65625,-0.375 3.65625,-0.5625 C 3.65625,-0.78125 3.671875,-0.875 3.78125,-1.3125 C 3.890625,-1.71875 3.90625,-1.828125 4,-2.203125 C 4.171875,-2.84375 4.203125,-3.03125 4.359375,-3.59375 C 4.421875,-3.875 4.421875,-3.890625 4.421875,-3.9375 C 4.421875,-4.109375 4.3125,-4.203125 4.140625,-4.203125 C 3.890625,-4.203125 3.75,-3.984375 3.71875,-3.765625 z M 3.078125,-1.1875 C 3.015625,-1 3.015625,-0.984375 2.875,-0.8125 C 2.4375,-0.265625 2.03125,-0.109375 1.75,-0.109375 C 1.25,-0.109375 1.109375,-0.65625 1.109375,-1.046875 C 1.109375,-1.546875 1.421875,-2.765625 1.65625,-3.234375 C 1.96875,-3.8125 2.40625,-4.1875 2.8125,-4.1875 C 3.453125,-4.1875 3.59375,-3.375 3.59375,-3.3125 C 3.59375,-3.25 3.578125,-3.1875 3.5625,-3.140625 L 3.078125,-1.1875 z"
               style="stroke:none" />
          </symbol>
          <symbol
             style="overflow:visible"
             id="textext-8d10c646-2"
             overflow="visible">
            <path
               id="path3268"
               d="M 3.328125,-3.015625 C 3.390625,-3.265625 3.625,-4.1875 4.3125,-4.1875 C 4.359375,-4.1875 4.609375,-4.1875 4.8125,-4.0625 C 4.53125,-4 4.34375,-3.765625 4.34375,-3.515625 C 4.34375,-3.359375 4.453125,-3.171875 4.71875,-3.171875 C 4.9375,-3.171875 5.25,-3.34375 5.25,-3.75 C 5.25,-4.265625 4.671875,-4.40625 4.328125,-4.40625 C 3.75,-4.40625 3.40625,-3.875 3.28125,-3.65625 C 3.03125,-4.3125 2.5,-4.40625 2.203125,-4.40625 C 1.171875,-4.40625 0.59375,-3.125 0.59375,-2.875 C 0.59375,-2.765625 0.703125,-2.765625 0.71875,-2.765625 C 0.796875,-2.765625 0.828125,-2.796875 0.84375,-2.875 C 1.1875,-3.9375 1.84375,-4.1875 2.1875,-4.1875 C 2.375,-4.1875 2.71875,-4.09375 2.71875,-3.515625 C 2.71875,-3.203125 2.546875,-2.546875 2.1875,-1.140625 C 2.03125,-0.53125 1.671875,-0.109375 1.234375,-0.109375 C 1.171875,-0.109375 0.953125,-0.109375 0.734375,-0.234375 C 0.984375,-0.296875 1.203125,-0.5 1.203125,-0.78125 C 1.203125,-1.046875 0.984375,-1.125 0.84375,-1.125 C 0.53125,-1.125 0.296875,-0.875 0.296875,-0.546875 C 0.296875,-0.09375 0.78125,0.109375 1.21875,0.109375 C 1.890625,0.109375 2.25,-0.59375 2.265625,-0.640625 C 2.390625,-0.28125 2.75,0.109375 3.34375,0.109375 C 4.375,0.109375 4.9375,-1.171875 4.9375,-1.421875 C 4.9375,-1.53125 4.859375,-1.53125 4.828125,-1.53125 C 4.734375,-1.53125 4.71875,-1.484375 4.6875,-1.421875 C 4.359375,-0.34375 3.6875,-0.109375 3.375,-0.109375 C 2.984375,-0.109375 2.828125,-0.421875 2.828125,-0.765625 C 2.828125,-0.984375 2.875,-1.203125 2.984375,-1.640625 L 3.328125,-3.015625 z"
               style="stroke:none" />
          </symbol>
          <symbol
             style="overflow:visible"
             id="textext-8d10c646-3"
             overflow="visible">
            <path
               id="path3271"
               d=""
               style="stroke:none" />
          </symbol>
          <symbol
             style="overflow:visible"
             id="textext-8d10c646-4"
             overflow="visible">
            <path
               id="path3274"
               d="M 3.515625,-1.265625 L 3.28125,-1.265625 C 3.265625,-1.109375 3.1875,-0.703125 3.09375,-0.640625 C 3.046875,-0.59375 2.515625,-0.59375 2.40625,-0.59375 L 1.125,-0.59375 C 1.859375,-1.234375 2.109375,-1.4375 2.515625,-1.765625 C 3.03125,-2.171875 3.515625,-2.609375 3.515625,-3.265625 C 3.515625,-4.109375 2.78125,-4.625 1.890625,-4.625 C 1.03125,-4.625 0.4375,-4.015625 0.4375,-3.375 C 0.4375,-3.03125 0.734375,-2.984375 0.8125,-2.984375 C 0.96875,-2.984375 1.171875,-3.109375 1.171875,-3.359375 C 1.171875,-3.484375 1.125,-3.734375 0.765625,-3.734375 C 0.984375,-4.21875 1.453125,-4.375 1.78125,-4.375 C 2.484375,-4.375 2.84375,-3.828125 2.84375,-3.265625 C 2.84375,-2.65625 2.40625,-2.1875 2.1875,-1.9375 L 0.515625,-0.265625 C 0.4375,-0.203125 0.4375,-0.1875 0.4375,0 L 3.3125,0 L 3.515625,-1.265625 z"
               style="stroke:none" />
          </symbol>
        </g>
      </defs>
      <g
         id="textext-8d10c646-5">
        <g
           id="g3277"
           style="fill:#000000;fill-opacity:1">
          <use
             height="1052.3622"
             width="744.09448"
             id="use3279"
             y="134.765"
             x="223.43201"
             xlink:href="#textext-8d10c646-1" />
          <use
             height="1052.3622"
             width="744.09448"
             id="use3281"
             y="134.765"
             x="228.69823"
             xlink:href="#textext-8d10c646-2" />
        </g>
        <g
           id="g3283"
           style="fill:#000000;fill-opacity:1">
          <use
             height="1052.3622"
             width="744.09448"
             id="use3285"
             y="131.14999"
             x="234.392"
             xlink:href="#textext-8d10c646-4" />
        </g>
      </g>
    </g>
    <path
       style="fill:none;fill-rule:evenodd;stroke:#000000;stroke-width:3;stroke-linecap:butt;stroke-linejoin:miter;stroke-opacity:1;stroke-miterlimit:4;stroke-dasharray:18,18;stroke-dashoffset:0"
       d="M 319.20821,328.0828 L 319.20821,967.50936"
       id="path3311" />
    <path
       id="path3313"
       d="M -0.50507491,647.79608 L 638.92149,647.79608"
       style="fill:none;fill-rule:evenodd;stroke:#000000;stroke-width:3;stroke-linecap:butt;stroke-linejoin:miter;stroke-opacity:1;stroke-miterlimit:4;stroke-dasharray:18,18;stroke-dashoffset:0" />
    <g
       transform="matrix(6.840692,0,0,6.840692,-1113.7925,-230.89652)"
       ns0:text="$x$"
       ns0:preamble=""
       id="g3343">
      <defs
         id="defs3345">
        <g
           id="g3347">
          <symbol
             style="overflow:visible"
             overflow="visible"
             id="textext-a9a45495-0">
            <path
               style="stroke:none"
               d=""
               id="path3350" />
          </symbol>
          <symbol
             style="overflow:visible"
             overflow="visible"
             id="textext-a9a45495-1">
            <path
               style="stroke:none"
               d="M 3.328125,-3.015625 C 3.390625,-3.265625 3.625,-4.1875 4.3125,-4.1875 C 4.359375,-4.1875 4.609375,-4.1875 4.8125,-4.0625 C 4.53125,-4 4.34375,-3.765625 4.34375,-3.515625 C 4.34375,-3.359375 4.453125,-3.171875 4.71875,-3.171875 C 4.9375,-3.171875 5.25,-3.34375 5.25,-3.75 C 5.25,-4.265625 4.671875,-4.40625 4.328125,-4.40625 C 3.75,-4.40625 3.40625,-3.875 3.28125,-3.65625 C 3.03125,-4.3125 2.5,-4.40625 2.203125,-4.40625 C 1.171875,-4.40625 0.59375,-3.125 0.59375,-2.875 C 0.59375,-2.765625 0.703125,-2.765625 0.71875,-2.765625 C 0.796875,-2.765625 0.828125,-2.796875 0.84375,-2.875 C 1.1875,-3.9375 1.84375,-4.1875 2.1875,-4.1875 C 2.375,-4.1875 2.71875,-4.09375 2.71875,-3.515625 C 2.71875,-3.203125 2.546875,-2.546875 2.1875,-1.140625 C 2.03125,-0.53125 1.671875,-0.109375 1.234375,-0.109375 C 1.171875,-0.109375 0.953125,-0.109375 0.734375,-0.234375 C 0.984375,-0.296875 1.203125,-0.5 1.203125,-0.78125 C 1.203125,-1.046875 0.984375,-1.125 0.84375,-1.125 C 0.53125,-1.125 0.296875,-0.875 0.296875,-0.546875 C 0.296875,-0.09375 0.78125,0.109375 1.21875,0.109375 C 1.890625,0.109375 2.25,-0.59375 2.265625,-0.640625 C 2.390625,-0.28125 2.75,0.109375 3.34375,0.109375 C 4.375,0.109375 4.9375,-1.171875 4.9375,-1.421875 C 4.9375,-1.53125 4.859375,-1.53125 4.828125,-1.53125 C 4.734375,-1.53125 4.71875,-1.484375 4.6875,-1.421875 C 4.359375,-0.34375 3.6875,-0.109375 3.375,-0.109375 C 2.984375,-0.109375 2.828125,-0.421875 2.828125,-0.765625 C 2.828125,-0.984375 2.875,-1.203125 2.984375,-1.640625 L 3.328125,-3.015625 z"
               id="path3353" />
          </symbol>
        </g>
      </defs>
      <g
         id="textext-a9a45495-2">
        <g
           style="fill:#000000;fill-opacity:1"
           id="g3356">
          <use
             height="1052.3622"
             width="744.09448"
             xlink:href="#textext-a9a45495-1"
             x="223.43201"
             y="134.765"
             id="use3358" />
        </g>
      </g>
    </g>
    <path
       id="path3396"
       d="M 538.81246,430.55936 L 651.54639,502.29609"
       style="fill:none;fill-rule:evenodd;stroke:#000000;stroke-width:2.99999976;stroke-linecap:butt;stroke-linejoin:miter;stroke-miterlimit:4;stroke-dasharray:none;stroke-opacity:1"
       inkscape:transform-center-x="-58.268115"
       inkscape:transform-center-y="36.809355" />
    <path
       id="path3398"
       d="M 539.20821,328.0828 L 539.20821,967.50936"
       style="fill:none;fill-rule:evenodd;stroke:#000000;stroke-width:3;stroke-linecap:butt;stroke-linejoin:miter;stroke-miterlimit:4;stroke-dasharray:36,36;stroke-dashoffset:0;stroke-opacity:1" />
    <g
       id="g3440"
       ns0:preamble=""
       ns0:text="$\\theta$"
       transform="matrix(4.9151268,0,0,4.9151268,-540.53422,-153.25916)">
      <defs
         id="defs3442">
        <g
           id="g3444">
          <symbol
             id="textext-6281a133-0"
             overflow="visible"
             style="overflow:visible">
            <path
               id="path3447"
               d=""
               style="stroke:none" />
          </symbol>
          <symbol
             id="textext-6281a133-1"
             overflow="visible"
             style="overflow:visible">
            <path
               id="path3450"
               d="M 4.53125,-4.984375 C 4.53125,-5.640625 4.359375,-7.03125 3.34375,-7.03125 C 1.953125,-7.03125 0.421875,-4.21875 0.421875,-1.9375 C 0.421875,-1 0.703125,0.109375 1.609375,0.109375 C 3.015625,0.109375 4.53125,-2.75 4.53125,-4.984375 z M 1.46875,-3.625 C 1.640625,-4.25 1.84375,-5.046875 2.25,-5.765625 C 2.515625,-6.25 2.875,-6.8125 3.328125,-6.8125 C 3.8125,-6.8125 3.875,-6.171875 3.875,-5.609375 C 3.875,-5.109375 3.796875,-4.609375 3.5625,-3.625 L 1.46875,-3.625 z M 3.46875,-3.296875 C 3.359375,-2.84375 3.15625,-2 2.765625,-1.28125 C 2.421875,-0.59375 2.046875,-0.109375 1.609375,-0.109375 C 1.28125,-0.109375 1.078125,-0.40625 1.078125,-1.328125 C 1.078125,-1.75 1.140625,-2.328125 1.390625,-3.296875 L 3.46875,-3.296875 z"
               style="stroke:none" />
          </symbol>
        </g>
      </defs>
      <g
         id="textext-6281a133-2">
        <g
           id="g3453"
           style="fill:#000000;fill-opacity:1">
          <use
             id="use3455"
             y="134.765"
             x="223.43201"
             xlink:href="#textext-6281a133-1"
             width="744.09448"
             height="1052.3622" />
        </g>
      </g>
    </g>
    <path
       sodipodi:type="arc"
       style="fill:#000000;fill-opacity:1;stroke:#040000;stroke-width:3;stroke-linecap:square;stroke-linejoin:miter;stroke-miterlimit:4;stroke-dasharray:none;stroke-dashoffset:0;stroke-opacity:1"
       id="path3505"
       sodipodi:cx="621.49634"
       sodipodi:cy="539.45721"
       sodipodi:rx="12.374369"
       sodipodi:ry="12.374369"
       d="M 633.87071,539.45721 A 12.374369,12.374369 0 1 1 609.12197,539.45721 A 12.374369,12.374369 0 1 1 633.87071,539.45721 z"
       transform="translate(35.469182,-31.010152)" />
    <g
       transform="matrix(6.3152098,0,0,6.3152098,-803.01563,-384.99446)"
       ns0:text="$l$"
       ns0:preamble=""
       id="g3558">
      <defs
         id="defs3560">
        <g
           id="g3562">
          <symbol
             style="overflow:visible"
             overflow="visible"
             id="textext-eb1b1f81-0">
            <path
               style="stroke:none"
               d=""
               id="path3565" />
          </symbol>
          <symbol
             style="overflow:visible"
             overflow="visible"
             id="textext-eb1b1f81-1">
            <path
               style="stroke:none"
               d="M 2.578125,-6.8125 C 2.578125,-6.8125 2.578125,-6.921875 2.4375,-6.921875 C 2.21875,-6.921875 1.484375,-6.84375 1.21875,-6.8125 C 1.140625,-6.8125 1.03125,-6.796875 1.03125,-6.609375 C 1.03125,-6.5 1.140625,-6.5 1.28125,-6.5 C 1.765625,-6.5 1.78125,-6.40625 1.78125,-6.328125 L 1.75,-6.125 L 0.484375,-1.140625 C 0.453125,-1.03125 0.4375,-0.96875 0.4375,-0.8125 C 0.4375,-0.234375 0.875,0.109375 1.34375,0.109375 C 1.671875,0.109375 1.921875,-0.09375 2.09375,-0.453125 C 2.265625,-0.828125 2.390625,-1.40625 2.390625,-1.421875 C 2.390625,-1.53125 2.296875,-1.53125 2.265625,-1.53125 C 2.171875,-1.53125 2.15625,-1.484375 2.140625,-1.34375 C 1.96875,-0.703125 1.78125,-0.109375 1.375,-0.109375 C 1.078125,-0.109375 1.078125,-0.421875 1.078125,-0.5625 C 1.078125,-0.8125 1.09375,-0.859375 1.140625,-1.046875 L 2.578125,-6.8125 z"
               id="path3568" />
          </symbol>
        </g>
      </defs>
      <g
         id="textext-eb1b1f81-2">
        <g
           style="fill:#000000;fill-opacity:1"
           id="g3571">
          <use
             height="1052.3622"
             width="744.09448"
             xlink:href="#textext-eb1b1f81-1"
             x="223.43201"
             y="134.765"
             id="use3573" />
        </g>
      </g>
    </g>
    <path
       sodipodi:end="1.5653989"
       sodipodi:start="0.54822408"
       transform="translate(-36.870568,-35.860415)"
       d="M 609.55753,490.01486 A 38.385796,38.385796 0 0 1 577.0043,508.39448 L 576.79712,470.00925 z"
       sodipodi:ry="38.385796"
       sodipodi:rx="38.385796"
       sodipodi:cy="470.00925"
       sodipodi:cx="576.79712"
       id="path3634"
       style="fill:#000000;fill-opacity:1;stroke:#040000;stroke-width:3;stroke-linecap:square;stroke-linejoin:miter;stroke-miterlimit:4;stroke-dasharray:none;stroke-dashoffset:0;stroke-opacity:1"
       sodipodi:type="arc" />
    <g
       id="g3700"
       ns0:preamble=""
       ns0:text="$m$"
       transform="matrix(4.2201032,0,0,4.2201032,-270.37996,-74.828711)">
      <defs
         id="defs3702">
        <g
           id="g3704">
          <symbol
             id="textext-08e211e0-0"
             overflow="visible"
             style="overflow:visible">
            <path
               id="path3707"
               d=""
               style="stroke:none" />
          </symbol>
          <symbol
             id="textext-08e211e0-1"
             overflow="visible"
             style="overflow:visible">
            <path
               id="path3710"
               d="M 0.875,-0.59375 C 0.84375,-0.4375 0.78125,-0.203125 0.78125,-0.15625 C 0.78125,0.015625 0.921875,0.109375 1.078125,0.109375 C 1.203125,0.109375 1.375,0.03125 1.453125,-0.171875 C 1.453125,-0.1875 1.578125,-0.65625 1.640625,-0.90625 C 1.703125,-1.203125 1.78125,-1.5 1.859375,-1.796875 C 1.90625,-2.03125 1.96875,-2.25 2.03125,-2.46875 C 2.0625,-2.640625 2.140625,-2.9375 2.15625,-2.96875 C 2.296875,-3.28125 2.828125,-4.1875 3.78125,-4.1875 C 4.234375,-4.1875 4.3125,-3.8125 4.3125,-3.484375 C 4.3125,-3.234375 4.25,-2.953125 4.171875,-2.65625 C 4.046875,-2.15625 4,-1.953125 3.890625,-1.5 C 3.78125,-1.140625 3.78125,-1.078125 3.6875,-0.75 C 3.65625,-0.546875 3.5625,-0.203125 3.5625,-0.15625 C 3.5625,0.015625 3.703125,0.109375 3.84375,0.109375 C 4.15625,0.109375 4.21875,-0.140625 4.296875,-0.453125 C 4.4375,-1.015625 4.8125,-2.46875 4.890625,-2.859375 C 4.921875,-2.984375 5.453125,-4.1875 6.546875,-4.1875 C 6.96875,-4.1875 7.078125,-3.84375 7.078125,-3.484375 C 7.078125,-2.921875 6.65625,-1.78125 6.453125,-1.25 C 6.375,-1.015625 6.328125,-0.90625 6.328125,-0.703125 C 6.328125,-0.234375 6.671875,0.109375 7.140625,0.109375 C 8.078125,0.109375 8.453125,-1.34375 8.453125,-1.421875 C 8.453125,-1.53125 8.359375,-1.53125 8.328125,-1.53125 C 8.234375,-1.53125 8.234375,-1.5 8.1875,-1.34375 C 8.03125,-0.8125 7.71875,-0.109375 7.171875,-0.109375 C 7,-0.109375 6.921875,-0.203125 6.921875,-0.4375 C 6.921875,-0.6875 7.015625,-0.921875 7.109375,-1.140625 C 7.296875,-1.671875 7.71875,-2.765625 7.71875,-3.34375 C 7.71875,-3.984375 7.3125,-4.40625 6.5625,-4.40625 C 5.828125,-4.40625 5.3125,-3.96875 4.9375,-3.4375 C 4.9375,-3.5625 4.90625,-3.90625 4.625,-4.140625 C 4.375,-4.359375 4.0625,-4.40625 3.8125,-4.40625 C 2.90625,-4.40625 2.421875,-3.765625 2.25,-3.53125 C 2.203125,-4.109375 1.78125,-4.40625 1.328125,-4.40625 C 0.875,-4.40625 0.6875,-4.015625 0.59375,-3.84375 C 0.421875,-3.484375 0.296875,-2.90625 0.296875,-2.875 C 0.296875,-2.765625 0.390625,-2.765625 0.40625,-2.765625 C 0.515625,-2.765625 0.515625,-2.78125 0.578125,-3 C 0.75,-3.703125 0.953125,-4.1875 1.3125,-4.1875 C 1.46875,-4.1875 1.609375,-4.109375 1.609375,-3.734375 C 1.609375,-3.515625 1.578125,-3.40625 1.453125,-2.890625 L 0.875,-0.59375 z"
               style="stroke:none" />
          </symbol>
        </g>
      </defs>
      <g
         id="textext-08e211e0-2">
        <g
           id="g3713"
           style="fill:#000000;fill-opacity:1">
          <use
             id="use3715"
             y="134.765"
             x="223.43201"
             xlink:href="#textext-08e211e0-1"
             width="744.09448"
             height="1052.3622" />
        </g>
      </g>
    </g>
  </g>
</svg>
